<svg width="90" height="101" viewBox="0 0 90 101" fill="none" xmlns="http://www.w3.org/2000/svg">
<g id="Property 1=Medium" clip-path="url(#clip0_76_52980)">
<g id="Group 3065">
<path id="Digital Bank" d="M6.35184 64.395C6.35184 65.5138 6.05845 66.3605 5.47169 66.9351C4.88492 67.5067 4.02301 67.7925 2.88596 67.7925H1.28984V61.1252H3.09118C4.15526 61.1252 4.96397 61.4034 5.51729 61.9598C6.07366 62.5161 6.35184 63.3279 6.35184 64.395ZM5.84564 64.4133C5.84564 63.4586 5.60242 62.7411 5.11598 62.2608C4.63258 61.7774 3.92116 61.5357 2.98173 61.5357H1.75499V67.382H2.8586C4.84996 67.382 5.84564 66.3924 5.84564 64.4133ZM10.6011 67.7925V61.1252H11.0663V67.7925H10.6011ZM18.2934 64.4315H20.7515V67.4733C20.1069 67.7469 19.3818 67.8837 18.5762 67.8837C17.5243 67.8837 16.7171 67.5873 16.1546 66.9944C15.5952 66.3985 15.3155 65.5564 15.3155 64.468C15.3155 63.79 15.4539 63.1896 15.7305 62.6666C16.0102 62.1407 16.4085 61.7348 16.9253 61.449C17.4452 61.1632 18.0411 61.0203 18.713 61.0203C19.4396 61.0203 20.0917 61.1541 20.6694 61.4217L20.4824 61.8412C19.9048 61.5737 19.3058 61.4399 18.6856 61.4399C17.807 61.4399 17.1093 61.712 16.5924 62.2562C16.0786 62.7974 15.8217 63.5285 15.8217 64.4497C15.8217 65.453 16.0665 66.2085 16.5559 66.7162C17.0454 67.2209 17.7644 67.4733 18.713 67.4733C19.3271 67.4733 19.8485 67.3866 20.2772 67.2133V64.8693H18.2934V64.4315ZM25.1467 67.7925V61.1252H25.6118V67.7925H25.1467ZM31.9543 67.7925H31.4846V61.563H29.3184V61.1252H34.1205V61.563H31.9543V67.7925ZM41.0421 65.4393H38.3332L37.4029 67.7925H36.8876L39.5691 61.0979H39.8655L42.4923 67.7925H41.9679L41.0421 65.4393ZM38.502 65.0198H40.887L39.9795 62.6165C39.9035 62.428 39.8123 62.1665 39.7059 61.8321C39.6238 62.1239 39.5341 62.3885 39.4369 62.6256L38.502 65.0198ZM46.1578 67.7925V61.1252H46.623V67.3547H49.8016V67.7925H46.1578ZM58.8154 61.1252H60.6441C61.468 61.1252 62.073 61.2651 62.4591 61.5448C62.8452 61.8245 63.0383 62.2471 63.0383 62.8126C63.0383 63.1987 62.9197 63.5209 62.6826 63.7794C62.4485 64.0347 62.105 64.1989 61.652 64.2719V64.2992C62.184 64.3783 62.5747 64.547 62.824 64.8054C63.0763 65.0608 63.2025 65.4181 63.2025 65.8771C63.2025 66.4913 62.9988 66.964 62.5914 67.2954C62.184 67.6268 61.6064 67.7925 60.8585 67.7925H58.8154V61.1252ZM59.2806 64.094H60.749C61.3753 64.094 61.8298 63.9907 62.1126 63.7839C62.3983 63.5741 62.5412 63.2473 62.5412 62.8034C62.5412 62.3596 62.3801 62.0373 62.0578 61.8366C61.7386 61.636 61.2613 61.5357 60.6259 61.5357H59.2806V64.094ZM59.2806 64.5045V67.382H60.8493C62.0837 67.382 62.7008 66.8804 62.7008 65.8771C62.7008 64.962 62.0502 64.5045 60.749 64.5045H59.2806ZM70.5984 65.4393H67.8895L66.9592 67.7925H66.4439L69.1254 61.0979H69.4218L72.0486 67.7925H71.5241L70.5984 65.4393ZM68.0583 65.0198H70.4433L69.5358 62.6165C69.4598 62.428 69.3686 62.1665 69.2622 61.8321C69.1801 62.1239 69.0904 62.3885 68.9931 62.6256L68.0583 65.0198ZM80.5618 67.7925H80.0921L76.1428 61.8731H76.1063C76.1428 62.5785 76.161 63.1105 76.161 63.4693V67.7925H75.7141V61.1252H76.1793L80.124 67.0355H80.1514C80.124 66.4882 80.1103 65.9683 80.1103 65.4758V61.1252H80.5618V67.7925ZM89.6542 67.7925H89.0841L86.5257 64.2719L85.6365 65.0563V67.7925H85.1713V61.1252H85.6365V64.5911L86.3753 63.8523L88.9883 61.1252H89.5812L86.8495 63.9435L89.6542 67.7925Z" fill="white"/>
<g id="Frame" clip-path="url(#clip1_76_52980)">
<path id="Vector" d="M70.3001 47.4547H88.3018V49.7761H70.3001V47.4547ZM70.3001 39.6752H88.3018V41.9966H70.3001V39.6752ZM70.3001 31.898H88.3018V34.2195H70.3001V31.898ZM31.7516 50.1509C26.5227 50.1509 22.2846 45.9695 22.2846 40.8113C22.2846 35.6531 26.5235 31.4717 31.7516 31.4717C36.9804 31.4717 41.2186 35.6531 41.2186 40.8113C41.2138 45.9672 36.978 50.1455 31.7516 50.1509ZM31.7516 33.7931C27.8173 33.7931 24.6282 36.9399 24.6282 40.8207C24.6282 44.7014 27.8173 47.8482 31.7516 47.8482C35.6858 47.8482 38.8749 44.7014 38.8749 40.8207C38.876 39.8965 38.6925 38.9812 38.335 38.1274C37.9775 37.2736 37.4531 36.498 36.7917 35.8452C35.454 34.5248 33.6413 33.7834 31.7516 33.7837V33.7931ZM61.9295 34.1258V47.4149H48.4588V34.1258H61.9295ZM64.2826 31.8043H46.1056V49.7363H64.2826V31.8043ZM0.848999 31.8535H3.20214V49.7691H0.848999V31.8535ZM16.5189 49.6894L7.5595 40.8511L16.5995 31.9332L18.2619 33.5729L10.8867 40.8511L18.1806 48.0497L16.5189 49.6894Z" fill="white"/>
</g>
</g>
</g>
<defs>
<clipPath id="clip0_76_52980">
<rect width="90" height="101" fill="white"/>
</clipPath>
<clipPath id="clip1_76_52980">
<rect width="87.4528" height="18.6792" fill="white" transform="translate(0.848999 31.4717)"/>
</clipPath>
</defs>
</svg>
