<svg width="148" height="148" viewBox="0 0 148 148" fill="none" xmlns="http://www.w3.org/2000/svg">
<path fill-rule="evenodd" clip-rule="evenodd" d="M28.5 50.9999L28.499 38.9992C28.4989 33.2399 33.1358 28.5634 38.8801 28.4997L51 28.5C51.8284 28.5 52.5 27.8285 52.5 27.0001C52.5 26.1716 51.8285 25.5 51.0001 25.5L38.9987 25.499C31.5428 25.4992 25.4988 31.5436 25.499 38.9994L25.5 51.0001C25.5001 51.8286 26.1717 52.5001 27.0001 52.5C27.8286 52.5 28.5001 51.8283 28.5 50.9999ZM95.5 26.9998C95.5 27.8282 96.1715 28.4998 97 28.4998C100.51 28.5 103.99 28.5 109 28.4998C114.799 28.4997 119.5 33.2005 119.5 38.9998V51C119.5 51.8284 120.172 52.5 121 52.5C121.828 52.5 122.5 51.8284 122.5 51V38.9995C122.5 31.5436 116.455 25.4996 109 25.4998C103.99 25.5 100.51 25.5 97.0001 25.4998C96.1717 25.4998 95.5001 26.1713 95.5 26.9998ZM121 95.5C120.172 95.5 119.5 96.1716 119.5 97V109C119.5 114.799 114.799 119.5 109 119.5H97C96.1716 119.5 95.5 120.172 95.5 121C95.5 121.828 96.1716 122.5 97 122.5H109C116.456 122.5 122.5 116.456 122.5 109V97C122.5 96.1716 121.828 95.5 121 95.5ZM51 119.5C51.8284 119.5 52.5 120.172 52.5 121C52.5 121.828 51.8284 122.5 51 122.5H38.9997C31.5438 122.5 25.4997 116.456 25.4997 109L25.5 97C25.5 96.1715 26.1716 95.5 27.0001 95.5C27.8285 95.5 28.5 96.1716 28.5 97.0001L28.4997 109C28.4997 114.799 33.2007 119.5 38.9997 119.5H51Z" fill="#6C78E6"/>
<path fill-rule="evenodd" clip-rule="evenodd" d="M53.5 61C52.6716 61 52 61.6716 52 62.5V69.5C52 70.3284 52.6716 71 53.5 71C54.3284 71 55 70.3284 55 69.5V62.5C55 61.6716 54.3284 61 53.5 61ZM94.5 61C93.6716 61 93 61.6716 93 62.5V69.5C93 70.3284 93.6716 71 94.5 71C95.3284 71 96 70.3284 96 69.5V62.5C96 61.6716 95.3284 61 94.5 61ZM75.5 62.5C75.5 61.6716 76.1716 61 77 61C77.8284 61 78.5 61.6716 78.5 62.5V78C78.5 82.6944 74.6944 86.5 70 86.5C69.1716 86.5 68.5 85.8284 68.5 85C68.5 84.1716 69.1716 83.5 70 83.5C73.0376 83.5 75.5 81.0376 75.5 78V62.5ZM57.8235 93.8581C57.1941 94.3968 57.1206 95.3437 57.6593 95.973C61.7182 100.716 67.6346 103.5 74 103.5C80.3633 103.5 86.2778 100.718 90.3367 95.9777C90.8756 95.3485 90.8023 94.4016 90.1731 93.8627C89.5438 93.3239 88.5969 93.3972 88.0581 94.0264C84.5632 98.1075 79.4776 100.5 74 100.5C68.5205 100.5 63.4334 98.1059 59.9385 94.0224C59.3998 93.393 58.4529 93.3194 57.8235 93.8581Z" fill="#F678BA"/>
</svg>
