<svg width="24" height="24" viewBox="0 0 24 24" fill="none" xmlns="http://www.w3.org/2000/svg">
<path fill-rule="evenodd" clip-rule="evenodd" d="M20.4697 21.5303L2.46967 3.53033C2.17678 3.23744 2.17678 2.76256 2.46967 2.46967C2.76256 2.17678 3.23744 2.17678 3.53033 2.46967L21.5303 20.4697C21.8232 20.7626 21.8232 21.2374 21.5303 21.5303C21.2374 21.8232 20.7626 21.8232 20.4697 21.5303ZM3.14546 7.31606C3.30614 7.14467 3.46863 6.97756 3.63292 6.8149L4.69353 7.87551C4.54141 8.02607 4.39015 8.18156 4.23977 8.34197C3.47238 9.16052 2.77249 10.0642 2.15439 11.0213C1.91361 11.3941 1.71006 11.735 1.56489 12C1.71006 12.265 1.91361 12.6059 2.15439 12.9787C2.77249 13.9358 3.47238 14.8395 4.23977 15.658C6.61675 18.1935 9.21142 19.5 12 19.5C13.2269 19.5 14.4162 19.2471 15.5659 18.7479L16.6946 19.8766C15.2341 20.6022 13.6683 21 12 21C8.6202 21 5.66131 19.3675 3.14546 16.6839C2.28113 15.762 1.5305 14.7776 0.894336 13.7925C0.509967 13.1974 0.246141 12.7283 0.105573 12.4472C-0.0351909 12.1657 -0.0351909 11.8343 0.105573 11.5528C0.246141 11.2717 0.509967 10.8026 0.894336 10.2075C1.5305 9.22245 2.28113 8.23802 3.14546 7.31606ZM8 12C8 11.7443 8.02399 11.4942 8.06985 11.2518L9.63735 12.8193C9.88757 13.5409 10.4591 14.1124 11.1807 14.3626L12.7482 15.9301C12.5058 15.976 12.2557 16 12 16C9.79086 16 8 14.2091 8 12ZM11.2518 8.06985L12.8193 9.63735C13.5409 9.88757 14.1124 10.459 14.3626 11.1807L15.9301 12.7482C15.976 12.5058 16 12.2557 16 12C16 9.79086 14.2091 8 12 8C11.7443 8 11.4942 8.02399 11.2518 8.06985ZM19.7602 15.658C19.6098 15.8184 19.4586 15.9739 19.3065 16.1245L20.3671 17.1851C20.5314 17.0224 20.6939 16.8553 20.8545 16.6839C21.7189 15.762 22.4695 14.7776 23.1057 13.7925C23.49 13.1974 23.7539 12.7283 23.8944 12.4472C24.0352 12.1657 24.0352 11.8343 23.8944 11.5528C23.7539 11.2717 23.49 10.8026 23.1057 10.2075C22.4695 9.22245 21.7189 8.23802 20.8545 7.31606C18.3387 4.63249 15.3798 3 12 3C10.3317 3 8.7659 3.39777 7.30536 4.12338L8.43406 5.25207C9.58382 4.75289 10.7731 4.5 12 4.5C14.7886 4.5 17.3832 5.80652 19.7602 8.34197C20.5276 9.16052 21.2275 10.0642 21.8456 11.0213C22.0864 11.3941 22.2899 11.735 22.4351 12C22.2899 12.265 22.0864 12.6059 21.8456 12.9787C21.2275 13.9358 20.5276 14.8395 19.7602 15.658Z" fill="#706D76"/>
</svg>
