<svg width="24" height="24" viewBox="0 0 24 24" fill="none" xmlns="http://www.w3.org/2000/svg">
<path fill-rule="evenodd" clip-rule="evenodd" d="M6.66346 16.0765L6.66346 4.42485C6.66346 4.01064 6.99924 3.67485 7.41346 3.67485C7.82767 3.67485 8.16346 4.01064 8.16346 4.42485L8.16346 16.0765L10.5902 13.6497C10.8831 13.3568 11.358 13.3568 11.6509 13.6497C11.9438 13.9426 11.9438 14.4175 11.6509 14.7104L7.94379 18.4175C7.6509 18.7104 7.17602 18.7104 6.88313 18.4175L3.17602 14.7104C2.88313 14.4175 2.88313 13.9426 3.17602 13.6497C3.46892 13.3568 3.94379 13.3568 4.23668 13.6497L6.66346 16.0765ZM17.3558 6.94262L17.3558 18.5943C17.3558 19.0085 17.0201 19.3443 16.6058 19.3443C16.1916 19.3443 15.8558 19.0085 15.8558 18.5943L15.8558 6.94262L13.4291 9.36939C13.1362 9.66229 12.6613 9.66229 12.3684 9.36939C12.0755 9.0765 12.0755 8.60163 12.3684 8.30873L16.0755 4.60163C16.3684 4.30873 16.8433 4.30873 17.1362 4.60163L20.8433 8.30873C21.1362 8.60163 21.1362 9.0765 20.8433 9.36939C20.5504 9.66229 20.0755 9.66229 19.7826 9.36939L17.3558 6.94262Z" fill="#6C78E6"/>
</svg>
