<svg width="24" height="24" viewBox="0 0 24 24" fill="none" xmlns="http://www.w3.org/2000/svg">
<path fill-rule="evenodd" clip-rule="evenodd" d="M3.63515 5.5H1.75C1.33579 5.5 1 5.16421 1 4.75C1 4.33579 1.33579 4 1.75 4H4.25C4.66421 4 5 4.33579 5 4.75L5 4.75106C5.01894 4.79634 5.03368 4.84416 5.04368 4.89414L5.41612 6.75632C5.7058 6.59311 6.04024 6.5 6.39643 6.5H19.6036C19.7236 6.5 19.8433 6.5108 19.9613 6.53226C21.0481 6.72985 21.7689 7.77102 21.5713 8.85777L20.2986 15.8578C20.1257 16.8088 19.2974 17.5 18.3308 17.5H7.66915C6.93259 17.5 6.27634 17.0986 5.92921 16.4867C5.84877 16.3926 5.79058 16.2771 5.76456 16.1471L5.74263 16.0374C5.72629 15.9787 5.7125 15.9188 5.70141 15.8578L5.64853 15.5669L3.63515 5.5ZM9.30094 8H6.39643C6.12028 8 5.89643 8.22386 5.89643 8.5C5.89643 8.53 5.89912 8.55993 5.90449 8.58944L6.29732 10.75H9.6065L9.30094 8ZM10.8102 8L11.1157 10.75H14.8843L15.1898 8H10.8102ZM16.6991 8L16.3935 10.75H19.7027L20.0955 8.58944C20.1449 8.31775 19.9647 8.05746 19.693 8.00807C19.6635 8.0027 19.6336 8 19.6036 8H16.6991ZM19.43 12.25H16.2268L15.8102 16H18.3308C18.5725 16 18.7796 15.8272 18.8228 15.5894L19.43 12.25ZM14.3009 16L14.7176 12.25H11.2824L11.6991 16H14.3009ZM10.1898 16L9.77316 12.25H6.57005L7.17722 15.5894C7.22044 15.8272 7.42751 16 7.66915 16H10.1898ZM16 20.5C16 21.3284 16.6716 22 17.5 22C18.3284 22 19 21.3284 19 20.5C19 19.6716 18.3284 19 17.5 19C16.6716 19 16 19.6716 16 20.5ZM8.5 22C7.67157 22 7 21.3284 7 20.5C7 19.6716 7.67157 19 8.5 19C9.32843 19 10 19.6716 10 20.5C10 21.3284 9.32843 22 8.5 22Z" fill="#6C78E6"/>
</svg>
