<svg width="24" height="24" viewBox="0 0 24 24" fill="none" xmlns="http://www.w3.org/2000/svg">
<path fill-rule="evenodd" clip-rule="evenodd" d="M5.89454 3.3034C5.83505 3.12496 5.80473 2.93809 5.80473 2.75C5.80473 1.7835 6.58823 1 7.55473 1H15.7799C15.968 1 16.1548 1.03032 16.3333 1.0898C17.2502 1.39544 17.7457 2.3865 17.4401 3.3034L16.1169 7.27284C17.3441 7.70812 18.3641 8.63866 18.8957 9.87888L20.8697 14.485C22.1206 17.4038 20.7685 20.7841 17.8496 22.0351C17.1339 22.3418 16.3633 22.5 15.5846 22.5H7.75C4.57436 22.5 2 19.9256 2 16.75C2 15.9713 2.15817 15.2007 2.46492 14.485L4.43895 9.87888C4.97047 8.63866 5.99054 7.70812 7.21768 7.27284L5.89454 3.3034ZM8.80489 8.5H14.5297C15.8298 8.5 17.0048 9.27479 17.5169 10.4698L19.491 15.0758C20.4156 17.2333 19.4162 19.7318 17.2588 20.6564C16.7297 20.8831 16.1602 21 15.5846 21H7.75C5.40279 21 3.5 19.0972 3.5 16.75C3.5 16.1744 3.61691 15.6049 3.84363 15.0758L5.81767 10.4698C6.3298 9.27479 7.5048 8.5 8.80489 8.5ZM14.6267 7H8.70787L7.31756 2.82906C7.30906 2.80357 7.30473 2.77687 7.30473 2.75C7.30473 2.61193 7.41666 2.5 7.55473 2.5H15.7799C15.8067 2.5 15.8334 2.50433 15.8589 2.51283C15.9899 2.55649 16.0607 2.69807 16.017 2.82906L14.6267 7Z" fill="#6C78E6"/>
</svg>
