<svg width="24" height="24" viewBox="0 0 24 24" fill="none" xmlns="http://www.w3.org/2000/svg">
<path d="M21.3467 8.35719L20.9253 7.96037L17.8754 5.08817C14.8244 2.03455 10.0922 1.36844 6.29294 3.46334C2.48994 5.56028 0.532293 9.91969 1.49162 14.1552C2.45095 18.3907 6.09596 21.4812 10.4313 21.7348C14.7667 21.9884 18.7472 19.3441 20.1939 15.2493C20.3319 14.8588 20.1271 14.4303 19.7366 14.2923C19.346 14.1543 18.9175 14.3591 18.7796 14.7496C17.5555 18.2144 14.1874 20.452 10.5189 20.2373C6.85054 20.0227 3.7663 17.4078 2.95457 13.8239C2.14283 10.24 3.7993 6.55122 7.01722 4.77689C10.2351 3.00256 14.2387 3.57043 16.8308 6.16437L20.2127 9.34948H16.0967C15.6825 9.34948 15.3467 9.68527 15.3467 10.0995C15.3467 10.5137 15.6825 10.8495 16.0967 10.8495H22.0967C22.5109 10.8495 22.8467 10.5137 22.8467 10.0995V4.09948C22.8467 3.68527 22.5109 3.34948 22.0967 3.34948C21.6825 3.34948 21.3467 3.68527 21.3467 4.09948V8.35719Z" fill="#6C78E6"/>
</svg>
