<svg width="24" height="24" viewBox="0 0 24 24" fill="none" xmlns="http://www.w3.org/2000/svg">
<path fill-rule="evenodd" clip-rule="evenodd" d="M11.4586 4.5L3.21967 12.739C2.92678 13.0319 2.92678 13.5067 3.21967 13.7996C3.51256 14.0925 3.98744 14.0925 4.28033 13.7996L12.5193 5.56066V8.99264C12.5193 9.40685 12.8551 9.74264 13.2693 9.74264C13.6835 9.74264 14.0193 9.40685 14.0193 8.99264V3.75C14.0193 3.33579 13.6835 3 13.2693 3H8.02665C7.61244 3 7.27665 3.33579 7.27665 3.75C7.27665 4.16421 7.61244 4.5 8.02665 4.5H11.4586ZM12.5607 18.5193L20.7996 10.2803C21.0925 9.98744 21.0925 9.51256 20.7996 9.21967C20.5067 8.92678 20.0319 8.92678 19.739 9.21967L11.5 17.4586V14.0267C11.5 13.6124 11.1642 13.2767 10.75 13.2767C10.3358 13.2767 10 13.6124 10 14.0267V19.2693C10 19.6835 10.3358 20.0193 10.75 20.0193H15.9926C16.4069 20.0193 16.7426 19.6835 16.7426 19.2693C16.7426 18.8551 16.4069 18.5193 15.9926 18.5193H12.5607Z" fill="#6C78E6"/>
</svg>
