<svg width="24" height="24" viewBox="0 0 24 24" fill="none" xmlns="http://www.w3.org/2000/svg">
<path fill-rule="evenodd" clip-rule="evenodd" d="M4 10V11V12.25V15C4 16.3979 4.95608 17.5725 6.25 17.9055V18.5C6.25 20.2949 7.70507 21.75 9.5 21.75H9.87803C10.1869 22.6239 11.0203 23.25 12 23.25C13.2426 23.25 14.25 22.2426 14.25 21C14.25 19.7574 13.2426 18.75 12 18.75C11.0203 18.75 10.1869 19.3761 9.87803 20.25H9.5C8.5335 20.25 7.75 19.4665 7.75 18.5V17.9055C9.04392 17.5725 10 16.3979 10 15V14C10 12.3431 8.65685 11 7 11H5.5V10C5.5 6.41015 8.41015 3.5 12 3.5C15.5899 3.5 18.5 6.41015 18.5 10V11H17C15.3431 11 14 12.3431 14 14V15C14 16.6569 15.3431 18 17 18C18.6569 18 20 16.6569 20 15V12.25V11V10C20 5.58172 16.4183 2 12 2C7.58172 2 4 5.58172 4 10ZM5.5 15V12.5H7C7.82843 12.5 8.5 13.1716 8.5 14V15C8.5 15.8284 7.82843 16.5 7 16.5C6.17157 16.5 5.5 15.8284 5.5 15ZM18.5 12.5V15C18.5 15.8284 17.8284 16.5 17 16.5C16.1716 16.5 15.5 15.8284 15.5 15V14C15.5 13.1716 16.1716 12.5 17 12.5H18.5ZM12.75 21C12.75 21.4142 12.4142 21.75 12 21.75C11.5858 21.75 11.25 21.4142 11.25 21C11.25 20.5858 11.5858 20.25 12 20.25C12.4142 20.25 12.75 20.5858 12.75 21Z" fill="#6C78E6"/>
</svg>
