<svg width="148" height="148" viewBox="0 0 148 148" fill="none" xmlns="http://www.w3.org/2000/svg">
<path fill-rule="evenodd" clip-rule="evenodd" d="M28.244 79.9833L15.4945 72.6978C14.7752 72.2868 13.8589 72.5367 13.4479 73.256C13.0369 73.9753 13.2868 74.8915 14.006 75.3026L28.006 83.3026C28.7047 83.7018 29.594 83.4786 30.0213 82.7967L32.6815 78.5518L39.3017 85.1673C39.3017 85.1673 39.2151 85.6861 39.0935 86.4832C38.3658 88.2327 37.7699 90.345 38 92.2775C38.0487 92.6869 38.1618 93.0782 38.3243 93.454C38.3141 94.1358 38.3625 94.6251 38.5 94.7789C38.9488 95.281 39.5394 95.6285 40.1503 95.9372C40.5627 96.3533 40.999 96.7546 41.426 97.1473C42.5494 98.1805 43.6085 99.1546 44 100.184C44.7098 102.051 45.834 101.984 46.9982 101.914C47.1807 101.903 47.3641 101.892 47.5471 101.888C48.755 102.876 49.9068 103.74 50.999 104.493C51.543 105.04 52.104 105.369 52.674 105.592C59.1246 109.608 63.147 109.533 63.8149 108.579L64.805 107.165C64.9221 107.26 65.0528 107.337 65.1929 107.393L77.6929 112.393C77.778 112.427 77.866 112.453 77.9558 112.471C81.9398 113.268 85.0031 111.163 86.9263 106.594C89.4346 107.803 92.4915 106.94 93.9822 104.535C94.7486 103.488 95.1314 102.483 95.1682 101.536C97.0575 101.578 98.9253 100.641 99.9871 98.912C100.804 97.7338 101.195 96.6058 101.154 95.5391C103.742 95.6794 106.708 94.4966 108.009 92.3299C109.485 89.8735 109.052 86.7668 107.338 84.8169L116.105 74.1015L101.751 52.0182L96.4904 54.8875C95.9068 55.2058 95.2204 55.2786 94.583 55.0898L83.6495 51.8502C82.8656 51.618 82.0523 51.5 81.2348 51.5H68.7232C65.4699 51.5 62.4223 53.0061 60.4453 55.5402C56.685 55.6637 52.9069 54.6153 49.0884 52.3704L53.5213 45.2967C53.9612 44.5947 53.7488 43.6691 53.0468 43.2292C52.3448 42.7892 51.4191 43.0017 50.9792 43.7037L28.244 79.9833ZM47.4948 54.9134C51.1439 57.0713 54.8223 58.2746 58.5161 58.508L54.8508 64.3391C53.3813 66.6771 54.0852 69.7636 56.4231 71.2332C57.2202 71.7342 58.1425 72 59.084 72H61.6947C64.0942 72 66.3488 70.8519 67.7602 68.9113L68.7651 67.5296C69.2355 66.8827 69.9871 66.5 70.7869 66.5H72.5874C73.062 66.5 73.5268 66.6351 73.9274 66.8895L89.2489 76.6174C89.3099 76.6719 89.3761 76.7221 89.4474 76.7673L104.447 86.2673L104.448 86.2676C104.483 86.2884 104.517 86.31 104.55 86.3324C105.845 87.1984 106.354 89.261 105.438 90.7848C104.509 92.3313 101.383 93.0314 100.023 92.2143L84.5339 82.7211C83.8275 82.2882 82.904 82.5099 82.4711 83.2162C82.0382 83.9225 82.2599 84.846 82.9662 85.2789L93.1518 91.5218C93.2396 91.616 93.341 91.7003 93.4554 91.7718C93.6828 91.914 93.8279 92.0039 94.2699 92.2775C96.5855 93.7105 97.4137 94.3146 97.8925 94.9902C98.3115 95.5812 98.273 96.1319 97.5019 97.231L97.4441 97.3199C96.733 98.5034 95.1971 98.8864 94.0136 98.1753L92.79 97.4725C92.2092 97.052 91.5292 96.6616 90.7575 96.305L80.9974 90.6991C80.2791 90.2865 79.3622 90.5344 78.9496 91.2527C78.537 91.9711 78.7849 92.8879 79.5033 93.3005L88.7297 98.5997C88.8518 98.7125 88.995 98.8067 89.1565 98.8759C89.2326 98.9085 89.3072 98.941 89.3802 98.9733L91.3867 100.126C92.3347 100.929 92.3201 101.745 91.5336 102.8L91.4508 102.924C90.7396 104.107 89.2037 104.49 88.0202 103.779L87.8997 103.714L77.3993 98.6463C76.6533 98.2862 75.7565 98.5991 75.3964 99.3452C75.0364 100.091 75.3493 100.988 76.0953 101.348L84.2271 105.273C82.8403 108.69 81.0601 109.975 78.6718 109.553L66.5339 104.696L67.5921 103.185C67.6799 103.059 67.5556 103.177 67.2714 103.446L67.2713 103.446L67.2711 103.447L67.271 103.447C65.8451 104.798 60.3972 109.962 57.5 107.393C56.4749 106.484 55.4053 106.261 54.3404 106.04C53.7813 105.923 53.2234 105.807 52.674 105.592C52.1326 105.255 51.5741 104.889 50.999 104.493C50.6587 104.151 50.325 103.724 50 103.185C49.301 102.025 48.4294 101.871 47.5471 101.888C45.9587 100.589 44.2735 99.0765 42.5 97.3199C42.0188 96.8433 41.3503 96.5205 40.6647 96.1894L40.6645 96.1893L40.6644 96.1893L40.6643 96.1892C40.4932 96.1065 40.3209 96.0234 40.1503 95.9372C39.3924 95.1725 38.7152 94.3578 38.3243 93.454C38.3522 91.5963 38.8149 88.3093 39.0935 86.4832C39.8169 84.7441 40.6705 83.3637 40.9725 82.8754L40.9725 82.8754L40.9725 82.8753C41.0695 82.7185 41.1096 82.6538 41.0701 82.6987L34.3155 75.9442L47.4948 54.9134ZM47.4948 54.9134L49.0884 52.3704C48.7463 52.1693 48.4039 51.9586 48.0611 51.7382C47.3643 51.2903 46.4362 51.492 45.9882 52.1889C45.5403 52.8857 45.742 53.8138 46.4389 54.2618C46.7906 54.4879 47.1426 54.7051 47.4948 54.9134ZM34.3155 75.9442L32.6815 78.5518L31.1893 77.0607L33.3107 74.9393L34.3155 75.9442ZM93.7308 57.9662C95.133 58.3817 96.643 58.2215 97.9269 57.5212L100.749 55.9818L112.395 73.8985L104.931 83.0208L75.5355 64.3568C74.654 63.7972 73.6315 63.5 72.5874 63.5H70.7869C69.0272 63.5 67.3738 64.342 66.3389 65.7651L65.334 67.1468C64.4872 68.3111 63.1344 69 61.6947 69H59.084C58.7074 69 58.3385 68.8937 58.0197 68.6933C57.0845 68.1055 56.8029 66.8708 57.3907 65.9357L62.3734 58.0087C63.7459 55.8252 66.1441 54.5 68.7232 54.5H81.2348C81.7638 54.5 82.29 54.5763 82.7973 54.7266L93.7308 57.9662Z" fill="#6C78E6"/>
<mask id="mask0_16_28684" style="mask-type:luminance" maskUnits="userSpaceOnUse" x="13" y="43" width="104" height="70">
<path fill-rule="evenodd" clip-rule="evenodd" d="M28.244 79.9833L15.4945 72.6978C14.7752 72.2868 13.8589 72.5367 13.4479 73.256C13.0369 73.9753 13.2868 74.8915 14.006 75.3026L28.006 83.3026C28.7047 83.7018 29.594 83.4786 30.0213 82.7967L32.6815 78.5518L39.3017 85.1673C39.3017 85.1673 39.2151 85.6861 39.0935 86.4832C38.3658 88.2327 37.7699 90.345 38 92.2775C38.0487 92.6869 38.1618 93.0782 38.3243 93.454C38.3141 94.1358 38.3625 94.6251 38.5 94.7789C38.9488 95.281 39.5394 95.6285 40.1503 95.9372C40.5627 96.3533 40.999 96.7546 41.426 97.1473C42.5494 98.1805 43.6085 99.1546 44 100.184C44.7098 102.051 45.834 101.984 46.9982 101.914C47.1807 101.903 47.3641 101.892 47.5471 101.888C48.755 102.876 49.9068 103.74 50.999 104.493C51.543 105.04 52.104 105.369 52.674 105.592C59.1246 109.608 63.147 109.533 63.8149 108.579L64.805 107.165C64.9221 107.26 65.0528 107.337 65.1929 107.393L77.6929 112.393C77.778 112.427 77.866 112.453 77.9558 112.471C81.9398 113.268 85.0031 111.163 86.9263 106.594C89.4346 107.803 92.4915 106.94 93.9822 104.535C94.7486 103.488 95.1314 102.483 95.1682 101.536C97.0575 101.578 98.9253 100.641 99.9871 98.912C100.804 97.7338 101.195 96.6058 101.154 95.5391C103.742 95.6794 106.708 94.4966 108.009 92.3299C109.485 89.8735 109.052 86.7668 107.338 84.8169L116.105 74.1015L101.751 52.0182L96.4904 54.8875C95.9068 55.2058 95.2204 55.2786 94.583 55.0898L83.6495 51.8502C82.8656 51.618 82.0523 51.5 81.2348 51.5H68.7232C65.4699 51.5 62.4223 53.0061 60.4453 55.5402C56.685 55.6637 52.9069 54.6153 49.0884 52.3704L53.5213 45.2967C53.9612 44.5947 53.7488 43.6691 53.0468 43.2292C52.3448 42.7892 51.4191 43.0017 50.9792 43.7037L28.244 79.9833ZM47.4948 54.9134C51.1439 57.0713 54.8223 58.2746 58.5161 58.508L54.8508 64.3391C53.3813 66.6771 54.0852 69.7636 56.4231 71.2332C57.2202 71.7342 58.1425 72 59.084 72H61.6947C64.0942 72 66.3488 70.8519 67.7602 68.9113L68.7651 67.5296C69.2355 66.8827 69.9871 66.5 70.7869 66.5H72.5874C73.062 66.5 73.5268 66.6351 73.9274 66.8895L89.2489 76.6174C89.3099 76.6719 89.3761 76.7221 89.4474 76.7673L104.447 86.2673L104.448 86.2676C104.483 86.2884 104.517 86.31 104.55 86.3324C105.845 87.1984 106.354 89.261 105.438 90.7848C104.509 92.3313 101.383 93.0314 100.023 92.2143L84.5339 82.7211C83.8275 82.2882 82.904 82.5099 82.4711 83.2162C82.0382 83.9225 82.2599 84.846 82.9662 85.2789L93.1518 91.5218C93.2396 91.616 93.341 91.7003 93.4554 91.7718C93.6828 91.914 93.8279 92.0039 94.2699 92.2775C96.5855 93.7105 97.4137 94.3146 97.8925 94.9902C98.3115 95.5812 98.273 96.1319 97.5019 97.231L97.4441 97.3199C96.733 98.5034 95.1971 98.8864 94.0136 98.1753L92.79 97.4725C92.2092 97.052 91.5292 96.6616 90.7575 96.305L80.9974 90.6991C80.2791 90.2865 79.3622 90.5344 78.9496 91.2527C78.537 91.9711 78.7849 92.8879 79.5033 93.3005L88.7297 98.5997C88.8518 98.7125 88.995 98.8067 89.1565 98.8759C89.2326 98.9085 89.3072 98.941 89.3802 98.9733L91.3867 100.126C92.3347 100.929 92.3201 101.745 91.5336 102.8L91.4508 102.924C90.7396 104.107 89.2037 104.49 88.0202 103.779L87.8997 103.714L77.3993 98.6463C76.6533 98.2862 75.7565 98.5991 75.3964 99.3452C75.0364 100.091 75.3493 100.988 76.0953 101.348L84.2271 105.273C82.8403 108.69 81.0601 109.975 78.6718 109.553L66.5339 104.696L67.5921 103.185C67.6799 103.059 67.5556 103.177 67.2714 103.446L67.2713 103.446L67.2711 103.447L67.271 103.447C65.8451 104.798 60.3972 109.962 57.5 107.393C56.4749 106.484 55.4053 106.261 54.3404 106.04C53.7813 105.923 53.2234 105.807 52.674 105.592C52.1326 105.255 51.5741 104.889 50.999 104.493C50.6587 104.151 50.325 103.724 50 103.185C49.301 102.025 48.4294 101.871 47.5471 101.888C45.9587 100.589 44.2735 99.0765 42.5 97.3199C42.0188 96.8433 41.3503 96.5205 40.6647 96.1894L40.6645 96.1893L40.6644 96.1893L40.6643 96.1892C40.4932 96.1065 40.3209 96.0234 40.1503 95.9372C39.3924 95.1725 38.7152 94.3578 38.3243 93.454C38.3522 91.5963 38.8149 88.3093 39.0935 86.4832C39.8169 84.7441 40.6705 83.3637 40.9725 82.8754L40.9725 82.8754L40.9725 82.8753C41.0695 82.7185 41.1096 82.6538 41.0701 82.6987L34.3155 75.9442L47.4948 54.9134ZM47.4948 54.9134L49.0884 52.3704C48.7463 52.1693 48.4039 51.9586 48.0611 51.7382C47.3643 51.2903 46.4362 51.492 45.9882 52.1889C45.5403 52.8857 45.742 53.8138 46.4389 54.2618C46.7906 54.4879 47.1426 54.7051 47.4948 54.9134ZM34.3155 75.9442L32.6815 78.5518L31.1893 77.0607L33.3107 74.9393L34.3155 75.9442ZM93.7308 57.9662C95.133 58.3817 96.643 58.2215 97.9269 57.5212L100.749 55.9818L112.395 73.8985L104.931 83.0208L75.5355 64.3568C74.654 63.7972 73.6315 63.5 72.5874 63.5H70.7869C69.0272 63.5 67.3738 64.342 66.3389 65.7651L65.334 67.1468C64.4872 68.3111 63.1344 69 61.6947 69H59.084C58.7074 69 58.3385 68.8937 58.0197 68.6933C57.0845 68.1055 56.8029 66.8708 57.3907 65.9357L62.3734 58.0087C63.7459 55.8252 66.1441 54.5 68.7232 54.5H81.2348C81.7638 54.5 82.29 54.5763 82.7973 54.7266L93.7308 57.9662Z" fill="white"/>
</mask>
<g mask="url(#mask0_16_28684)">
<path d="M68.4586 67.9878C68.4586 67.9878 70.1315 65.2392 76.1315 64.7392C82.1315 64.2392 70.7513 60.1655 70.7513 60.1655L65.8862 65.8719L68.4586 67.9878Z" fill="#F678BA"/>
</g>
<path fill-rule="evenodd" clip-rule="evenodd" d="M132.506 72.6978C133.225 72.2868 134.142 72.5367 134.553 73.256C134.964 73.9753 134.714 74.8915 133.994 75.3026L119.994 83.3026C119.296 83.7018 118.406 83.4786 117.979 82.7967L114.97 77.9953L115 78L114.157 76.6975L112.101 73.4169L112.025 73.4039L100.749 55.9818L97.927 57.5212C96.643 58.2215 95.1331 58.3817 93.7308 57.9662L82.7973 54.7266C82.2901 54.5763 81.7638 54.5 81.2348 54.5H68.7232C66.1441 54.5 63.7459 55.8252 62.3734 58.0087L57.3908 65.9357C56.8029 66.8708 57.0845 68.1055 58.0197 68.6933C58.3385 68.8937 58.7074 69 59.084 69H61.6947C63.1344 69 64.4872 68.3111 65.334 67.1468L66.3389 65.7651C67.3738 64.342 70.1186 64.4404 71 65C71 65 69.8254 66.1085 69.1019 67.1532C68.9783 67.2659 68.8653 67.3917 68.7651 67.5296L67.7602 68.9113C66.3489 70.8519 64.0942 72 61.6947 72H59.084C58.1426 72 57.2202 71.7342 56.4232 71.2332C54.0852 69.7636 53.3813 66.6771 54.8508 64.3391L59.8335 56.4122C61.755 53.3552 65.1125 51.5 68.7232 51.5H81.2348C82.0524 51.5 82.8657 51.618 83.6496 51.8502L94.5831 55.0898C95.2204 55.2786 95.9068 55.2058 96.4904 54.8875L99.4707 53.2619L94.4792 45.2967C94.0393 44.5947 94.2517 43.6691 94.9537 43.2292C95.6557 42.7892 96.5814 43.0017 97.0213 43.7037L115.145 72.6249L116.105 74.1015L116.066 74.0949L119.756 79.9833L132.506 72.6978ZM62.2534 89.0465C64.208 90.4151 64.9259 92.8917 64.1525 95.0334C64.9092 95.1562 65.6474 95.4471 66.3095 95.9107C68.6723 97.5651 69.2465 100.822 67.5921 103.185L66.5339 104.696C66.5339 104.696 64.9221 107.26 64.805 107.165L63.8149 108.579C62.1605 110.942 58.9039 111.516 56.5411 109.861C55.6063 109.207 54.9431 108.292 54.5949 107.274C53.0848 107.792 51.3562 107.606 49.9483 106.62C48.7336 105.769 47.9966 104.491 47.7982 103.131C46.3855 103.431 44.8566 103.167 43.5801 102.274C41.8576 101.067 41.0553 99.037 41.3331 97.0886C40.258 97.0925 39.1713 96.776 38.2237 96.1125C35.783 94.4035 35.1899 91.0396 36.8988 88.599L39.3017 85.1673L41.0701 82.6987C42.8613 80.6586 45.9391 80.2509 48.2145 81.8442C48.9623 82.3678 49.5367 83.0469 49.9246 83.8071L50.1248 83.5212C51.8338 81.0806 55.1977 80.4874 57.6383 82.1964C59.583 83.5581 60.3548 85.9704 59.7237 88.1292C60.6041 88.2027 61.4775 88.5032 62.2534 89.0465ZM121.25 70C121.25 71.1046 122.145 72 123.25 72C124.355 72 125.25 71.1046 125.25 70C125.25 68.8954 124.355 68 123.25 68C122.145 68 121.25 68.8954 121.25 70ZM57.4424 104.836C57.1081 105.77 57.4363 106.826 58.2618 107.404C59.2674 108.108 60.6534 107.864 61.3575 106.858L65.1346 101.464C65.8387 100.458 65.5944 99.0723 64.5888 98.3682C63.7633 97.7901 62.6584 97.843 61.8953 98.4765L57.4424 104.836ZM39.3563 90.3197L43.1584 84.8897C43.917 83.8063 45.4103 83.543 46.4938 84.3016C47.5772 85.0602 47.8405 86.5535 47.0819 87.637L43.2798 93.0669C42.5211 94.1504 41.0278 94.4137 39.9444 93.6551C38.861 92.8964 38.5977 91.4031 39.3563 90.3197ZM52.5822 85.242L44.7127 96.4808C43.9541 97.5642 44.2174 99.0575 45.3008 99.8162C46.3843 100.575 47.8776 100.311 48.6362 99.228L56.5057 87.9892C57.2643 86.9058 57.001 85.4125 55.9176 84.6539C54.8342 83.8952 53.3409 84.1585 52.5822 85.242ZM61.0652 94.5243L57.255 99.966L54.6895 103.63C54.0025 104.611 52.6502 104.849 51.6691 104.162C50.6879 103.475 50.4495 102.123 51.1365 101.142L57.5123 92.0365C58.1992 91.0554 59.5515 90.8169 60.5327 91.5039C61.5138 92.1909 61.7522 93.5431 61.0653 94.5243L61.0652 94.5243Z" fill="#F678BA"/>
</svg>
