<svg width="24" height="24" viewBox="0 0 24 24" fill="none" xmlns="http://www.w3.org/2000/svg">
<path fill-rule="evenodd" clip-rule="evenodd" d="M21.3881 17.4318C21.4039 16.6427 20.85 15.9917 20.1116 15.8875C19.1065 15.7549 18.1271 15.5112 17.1799 15.1578C16.6339 14.9525 16.016 15.0845 15.6056 15.4902L14.0331 17.0627L13.0177 16.4155C10.9885 15.122 9.26672 13.4002 7.97327 11.3711L7.32598 10.3556L8.17748 9.50413L8.88867 8.79297C9.30408 8.37289 9.43629 7.75504 9.22883 7.20313C8.87782 6.26246 8.63393 5.28308 8.5043 4.29971C8.39775 3.54572 7.75663 2.99315 6.98826 3.00064L3.99954 3.00059C3.57761 3.00098 3.17609 3.17828 2.89217 3.4893C2.6083 3.80028 2.4682 4.21624 2.5038 4.61224C2.82509 7.63881 3.84941 10.5343 5.50488 13.0898C6.99665 15.4375 8.99293 17.4332 11.358 18.9361C13.8825 20.5733 16.7638 21.5977 19.7354 21.9209C20.1727 21.9605 20.5901 21.8203 20.9022 21.534C21.2134 21.2485 21.3898 20.845 21.3881 20.4165L21.3881 17.4318ZM22.8881 17.4318L22.8881 20.4165C22.8915 21.2612 22.5387 22.0683 21.9162 22.6393C21.2938 23.2104 20.4594 23.4926 19.6001 23.4147C16.3674 23.0635 13.2623 21.9589 10.5418 20.1946C8.00173 18.5805 5.84819 16.427 4.23885 13.8943C2.46343 11.1537 1.35855 8.03337 1.01219 4.77059C0.936396 3.9319 1.21659 3.09997 1.78433 2.47802C2.35208 1.85607 3.15508 1.50138 3.99813 1.50059L6.98829 1.50064C8.49408 1.48582 9.77754 2.58959 9.98954 4.08983C10.1063 4.97512 10.3228 5.84437 10.6342 6.67873C11.0463 7.77504 10.7827 9.01094 9.95523 9.84769L9.23814 10.5648C10.414 12.4094 11.9793 13.9747 13.8239 15.1506L14.545 14.4295C15.3778 13.606 16.6137 13.3424 17.7077 13.7537C18.5443 14.0659 19.4136 14.2824 20.3078 14.4004C21.8117 14.6125 22.919 15.9148 22.8881 17.4318Z" fill="#6C78E6"/>
</svg>
