<svg width="24" height="24" viewBox="0 0 24 24" fill="none" xmlns="http://www.w3.org/2000/svg">
<path fill-rule="evenodd" clip-rule="evenodd" d="M17.1743 3H6.32571C5.96932 3 5.63987 3.18967 5.46092 3.49786L1.78853 9.82253C1.30083 10.3188 1 10.9993 1 11.75V17.75C1 19.2688 2.23122 20.5 3.75 20.5H4.75C6.00878 20.5 7.07002 19.6543 7.39648 18.5H16.1035C16.43 19.6543 17.4912 20.5 18.75 20.5H19.75C21.2688 20.5 22.5 19.2688 22.5 17.75V11.75C22.5 10.9993 22.1992 10.3188 21.7115 9.82253L18.0391 3.49786C17.8601 3.18967 17.5307 3 17.1743 3ZM19.5993 9H19.75C20.518 9 21.2125 9.31485 21.7115 9.82253L22.25 10.75L21.25 10.25H3.75L1.25 10.75L1.78853 9.82253C2.28746 9.31485 2.98196 9 3.75 9H3.90071L3.75 9.25H19.75L19.5993 9ZM19.5993 9L16.8864 4.5H6.61356L3.90071 9H19.5993ZM2.5 11.75C2.5 11.0596 3.05964 10.5 3.75 10.5H19.75C20.4404 10.5 21 11.0596 21 11.75V17.75C21 18.4404 20.4404 19 19.75 19H18.75C18.0596 19 17.5 18.4404 17.5 17.75V17H6V17.75C6 18.4404 5.44036 19 4.75 19H3.75C3.05964 19 2.5 18.4404 2.5 17.75V11.75ZM5.75 12.75C5.19772 12.75 4.75 13.1977 4.75 13.75C4.75 14.3023 5.19772 14.75 5.75 14.75H7.75C8.30228 14.75 8.75 14.3023 8.75 13.75C8.75 13.1977 8.30228 12.75 7.75 12.75H5.75ZM14.75 13.75C14.75 13.1977 15.1977 12.75 15.75 12.75H17.75C18.3023 12.75 18.75 13.1977 18.75 13.75C18.75 14.3023 18.3023 14.75 17.75 14.75H15.75C15.1977 14.75 14.75 14.3023 14.75 13.75Z" fill="#6C78E6"/>
</svg>
