<svg width="24" height="24" viewBox="0 0 24 24" fill="none" xmlns="http://www.w3.org/2000/svg">
<path fill-rule="evenodd" clip-rule="evenodd" d="M5.65645 3.88254C9.91918 1.77249 14.1503 1.77249 18.4131 3.88254C18.7348 4.04179 19.1247 3.91008 19.284 3.58836C19.4432 3.26663 19.3115 2.87672 18.9898 2.71746C14.3636 0.427513 9.70589 0.427513 5.07973 2.71746C4.75801 2.87672 4.6263 3.26663 4.78555 3.58836C4.94481 3.91008 5.33472 4.04179 5.65645 3.88254ZM21.9375 8.47493C19.9969 5.57076 16.2019 3.75 12.0348 3.75C7.84907 3.75 4.03999 5.58709 2.10776 8.51138C1.90986 8.81089 1.99223 9.21412 2.29174 9.41202C2.59125 9.60992 2.99448 9.52755 3.19238 9.22804C4.88314 6.66919 8.29106 5.05 12.0348 5.05C15.7623 5.05 19.158 6.65518 20.8567 9.19722C21.0561 9.49569 21.4598 9.57597 21.7582 9.37651C22.0567 9.17706 22.137 8.77341 21.9375 8.47493ZM17.5903 20.89C14.1632 20.89 11.3848 18.2609 11.3848 15.015C11.3848 14.656 11.6758 14.365 12.0348 14.365C12.3937 14.365 12.6848 14.656 12.6848 15.015C12.6848 17.5412 14.8817 19.59 17.5903 19.59C17.9285 19.59 18.263 19.5581 18.5903 19.4949C18.9428 19.4269 19.2837 19.6574 19.3518 20.0099C19.4198 20.3624 19.1893 20.7033 18.8368 20.7714C18.4284 20.8502 18.0113 20.89 17.5903 20.89ZM4.873 19.0426C3.476 14.8935 4.14397 11.6829 6.90479 9.2913C11.4084 5.39001 19.2509 8.31311 19.7192 14.3419C19.9178 16.1163 19.2067 17.0844 17.8293 17.0195C16.5415 16.9588 15.4625 15.9971 15.4625 14.85C15.4625 13.0059 14.0046 11.725 12.0348 11.725C10.0649 11.725 8.60698 13.0059 8.60698 14.85C8.60698 19.0368 10.9895 22.1359 15.2119 23.181C15.5604 23.2672 15.9128 23.0546 15.9991 22.7062C16.0853 22.3577 15.8727 22.0053 15.5243 21.919C11.8929 21.0203 9.90698 18.4448 9.90698 14.85C9.90698 13.7496 10.7852 13.025 12.0348 13.025C13.2843 13.025 14.1625 13.7496 14.1625 14.85C14.1625 16.7076 15.7838 18.2245 17.768 18.318C19.9338 18.4201 21.3006 16.781 21.0132 14.219C20.4625 7.12421 11.3506 3.72015 6.05361 8.3087C2.88813 11.0508 2.07514 14.8069 3.64096 19.4574C3.75551 19.7976 4.12417 19.9806 4.46439 19.866C4.80461 19.7515 4.98755 19.3828 4.873 19.0426ZM12.0348 8.975C15.3116 8.975 17.4215 10.9312 18.2261 14.7148C18.3008 15.0659 18.0766 15.4111 17.7255 15.4858C17.3744 15.5605 17.0292 15.3363 16.9545 14.9852C16.2778 11.8029 14.6848 10.275 12.0348 10.275C9.38573 10.275 6.78476 12.9123 6.78476 14.85C6.78476 16.9917 7.91244 19.7543 10.2698 22.0881C10.525 22.3406 10.527 22.7522 10.2745 23.0073C10.0219 23.2624 9.61034 23.2645 9.35523 23.0119C6.56703 20.2516 5.21414 16.4451 5.7774 14.1752C6.4709 11.3804 8.80425 8.975 12.0348 8.975Z" fill="white"/>
</svg>
