<svg width="148" height="148" viewBox="0 0 148 148" fill="none" xmlns="http://www.w3.org/2000/svg">
<path fill-rule="evenodd" clip-rule="evenodd" d="M93.8601 31.8237C94.5866 32.1929 94.8801 33.0891 94.5158 33.8253C94.1514 34.5614 93.2671 34.8589 92.5406 34.4897C84.1745 30.2378 74.6953 28.9136 65.3643 30.8616C54.7726 33.0725 45.5974 39.2485 39.3529 48.1081C38.8806 48.7783 37.9615 48.9336 37.3001 48.4549C36.6387 47.9762 36.4855 47.0449 36.9579 46.3747C43.6279 36.9112 53.4422 30.3051 64.7704 27.9404C74.7557 25.8559 84.9082 27.2742 93.8601 31.8237ZM33.9992 53.6799C34.3633 52.9436 35.2476 52.6458 35.9742 53.0149C36.7008 53.3839 36.9946 54.2799 36.6304 55.0162C32.2615 63.8494 30.8587 73.9471 32.7942 83.8851C32.9516 84.6931 32.4328 85.4774 31.6354 85.6369C30.838 85.7963 30.064 85.2706 29.9067 84.4626C27.8437 73.8703 29.34 63.1 33.9992 53.6799ZM117.813 68.2588C118.61 68.0994 119.129 67.3151 118.972 66.5071C116.632 54.4941 109.986 44.1261 100.486 37.224C99.8257 36.7441 98.9063 36.8977 98.4327 37.567C97.9591 38.2364 98.1107 39.168 98.7712 39.6479C107.666 46.1106 113.891 55.8203 116.084 67.0845C116.242 67.8925 117.016 68.4183 117.813 68.2588ZM64.2447 119.351C63.7148 119.975 62.7857 120.046 62.1694 119.509C61.5532 118.972 61.4832 118.031 62.0131 117.406C71.895 105.761 76.1036 90.016 73.0869 74.5269C72.9295 73.7189 73.4484 72.9346 74.2457 72.7751C75.0431 72.6156 75.8171 73.1414 75.9744 73.9494C79.1675 90.3441 74.7108 107.017 64.2447 119.351ZM63.3329 78.7269C62.5272 78.8351 61.9607 79.5848 62.0676 80.4012C63.6985 92.8613 59.3374 105.231 50.5858 113.708C49.9983 114.277 49.9773 115.221 50.5389 115.817C51.1005 116.412 52.0321 116.433 52.6196 115.864C62.0462 106.733 66.7405 93.4184 64.9852 80.0091C64.8784 79.1926 64.1386 78.6186 63.3329 78.7269ZM87.4588 85.7872C87.461 86.6108 86.8039 87.2803 85.9912 87.2825C85.1784 87.2847 84.5178 86.6189 84.5156 85.7953C84.5048 81.7893 84.1125 77.7684 83.3346 73.7729L83.2348 73.2604C81.9761 68.161 77.0792 64.9349 72.0658 65.9818C68.2747 66.7733 65.3509 69.8335 64.5708 73.7051C64.4082 74.512 63.6308 75.0326 62.8345 74.8678C62.0382 74.7031 61.5244 73.9153 61.687 73.1084C62.6994 68.0847 66.5096 64.0966 71.4718 63.0607C78.2643 61.6423 84.8709 66.1873 86.2344 73.1908L86.4735 74.419C87.1134 78.2053 87.4486 82.0022 87.4588 85.7872ZM75.7573 121.748C76.4326 122.206 77.3467 122.023 77.7989 121.338C83.5123 112.694 87.1271 102.73 88.2752 92.3046C88.3654 91.4861 87.7836 90.7485 86.9759 90.6572C86.1682 90.5658 85.4403 91.1553 85.3501 91.9738C84.2546 101.922 80.805 111.43 75.3535 119.679C74.9012 120.363 75.082 121.289 75.7573 121.748ZM50.8175 95.5874C51.1063 94.8175 51.9563 94.4306 52.716 94.7233C53.4757 95.0159 53.8575 95.8772 53.5687 96.6471C51.7524 101.489 48.7487 105.781 44.863 109.077C44.2398 109.605 43.3116 109.522 42.79 108.89C42.2684 108.259 42.3507 107.318 42.974 106.79C46.472 103.823 49.1795 99.954 50.8175 95.5874ZM95.5689 98.9052C96.3713 99.0363 97.1267 98.4834 97.256 97.6703C98.6325 89.0187 98.544 80.1476 96.9521 71.3576L96.7685 70.4149C94.2011 57.233 81.7829 48.6901 69.0236 51.3539C56.2729 54.0161 48.0334 66.8562 50.5989 80.0288L50.8328 81.2298C51.1867 83.5815 51.2402 85.9446 50.9994 88.2747C50.9148 89.0938 51.5015 89.8274 52.3098 89.9131C53.1181 89.9989 53.842 89.4044 53.9267 88.5853C54.2391 85.5609 54.1044 82.4872 53.5121 79.4459L53.3043 78.3787C51.6821 67.1844 58.8071 56.5321 69.6175 54.275C80.6336 51.9751 91.3769 59.2518 93.7995 70.5935L93.8777 70.9947C95.5804 79.739 95.7209 88.5808 94.3503 97.1956C94.221 98.0087 94.7666 98.7741 95.5689 98.9052ZM91.3518 118.037C91.002 118.78 90.1238 119.095 89.3901 118.741C88.6565 118.387 88.3453 117.497 88.6951 116.753C90.6652 112.566 92.2449 108.193 93.4081 103.695C93.6141 102.899 94.4184 102.422 95.2047 102.631C95.9909 102.839 96.4612 103.655 96.2552 104.451C95.045 109.131 93.4015 113.68 91.3518 118.037ZM39.6617 76.2868C39.7364 78.1741 39.9554 80.0603 40.3202 81.9329L40.464 82.671C41.2638 88.0974 39.27 93.5078 35.2711 97.0164C34.6566 97.5555 34.5898 98.4973 35.1218 99.1199C35.6538 99.7425 36.5832 99.8103 37.1976 99.2712C42.1727 94.9061 44.535 88.0796 43.2245 81.3509L43.0155 80.2779C42.7943 78.9118 42.6569 77.5398 42.6026 76.1674C42.5701 75.3445 41.8853 74.7041 41.0732 74.7371C40.2611 74.7701 39.6292 75.4639 39.6617 76.2868ZM108.512 67.6402C108.805 69.1428 109.058 70.6464 109.274 72.1503C109.391 72.9653 108.834 73.722 108.029 73.8404C107.225 73.9587 106.478 73.394 106.361 72.579C106.202 71.4684 106.021 70.3579 105.819 69.2477L105.618 68.2169C102.162 50.469 85.4845 38.996 68.3722 42.5682C55.4788 45.2602 45.6661 55.8757 43.4482 69.0891C43.312 69.901 42.552 70.4472 41.7507 70.3091C40.9495 70.171 40.4104 69.4009 40.5467 68.589C42.965 54.1813 53.6789 42.5909 67.7783 39.6471C86.1344 35.8153 104.013 47.7888 108.265 66.4972L108.512 67.6402ZM105.02 108.97C105.807 109.178 106.611 108.7 106.816 107.903C109.139 98.8826 110.049 89.5184 109.476 80.1132C109.426 79.2912 108.727 78.666 107.916 78.7167C107.105 78.7675 106.488 79.475 106.538 80.2971C107.092 89.3857 106.212 98.4338 103.968 107.15C103.763 107.947 104.234 108.762 105.02 108.97Z" fill="#6C78E6"/>
</svg>
