<svg width="24" height="24" viewBox="0 0 24 24" fill="none" xmlns="http://www.w3.org/2000/svg">
<path fill-rule="evenodd" clip-rule="evenodd" d="M6.75 5.96973C6.75 6.38394 6.41421 6.71973 6 6.71973C4.20507 6.71973 2.75 8.1748 2.75 9.96973V16.9697C2.75 18.7647 4.20507 20.2197 6 20.2197H18C19.7949 20.2197 21.25 18.7647 21.25 16.9697V9.96973C21.25 8.1748 19.7949 6.71973 18 6.71973C17.5858 6.71973 17.25 6.38394 17.25 5.96973C17.25 5.55551 17.5858 5.21973 18 5.21973C20.6234 5.21973 22.75 7.34637 22.75 9.96973V16.9697C22.75 19.5931 20.6234 21.7197 18 21.7197H6C3.37665 21.7197 1.25 19.5931 1.25 16.9697V9.96973C1.25 7.34637 3.37665 5.21973 6 5.21973C6.41421 5.21973 6.75 5.55551 6.75 5.96973ZM12 1.25006C11.5858 1.25006 11.25 1.58584 11.25 2.00006V9.40907L9.53033 7.6894C9.23744 7.3965 8.76256 7.3965 8.46967 7.6894C8.17678 7.98229 8.17678 8.45716 8.46967 8.75006L11.4697 11.7501C11.7626 12.043 12.2374 12.043 12.5303 11.7501L15.5303 8.75006C15.8232 8.45716 15.8232 7.98229 15.5303 7.6894C15.2374 7.3965 14.7626 7.3965 14.4697 7.6894L12.75 9.40907V2.00006C12.75 1.58584 12.4142 1.25006 12 1.25006Z" fill="#6C78E6"/>
</svg>
