<svg width="24" height="24" viewBox="0 0 24 24" fill="none" xmlns="http://www.w3.org/2000/svg">
<path fill-rule="evenodd" clip-rule="evenodd" d="M20.75 3C20.75 2.0335 19.9665 1.25 19 1.25H5C4.0335 1.25 3.25 2.0335 3.25 3V22.75H4.75V2.75H19.25V15.75H20.75V3ZM8 6.25C7.58579 6.25 7.25 6.58579 7.25 7C7.25 7.41421 7.58579 7.75 8 7.75H16C16.4142 7.75 16.75 7.41421 16.75 7C16.75 6.58579 16.4142 6.25 16 6.25H8ZM8 10.25C7.58579 10.25 7.25 10.5858 7.25 11C7.25 11.4142 7.58579 11.75 8 11.75H16C16.4142 11.75 16.75 11.4142 16.75 11C16.75 10.5858 16.4142 10.25 16 10.25H8ZM7.25 15C7.25 14.5858 7.58579 14.25 8 14.25H12C12.4142 14.25 12.75 14.5858 12.75 15C12.75 15.4142 12.4142 15.75 12 15.75H8C7.58579 15.75 7.25 15.4142 7.25 15ZM7.125 22.8105V18.1284H9.16016C10.1572 18.1284 10.8125 18.7693 10.8125 19.7534C10.8125 20.7241 10.1231 21.3647 9.08496 21.3647H8.25439L8.12939 21.4897V22.8105H7.125ZM12.125 18.125V22.8105H14.0713C15.484 22.8105 16.2534 21.9723 16.2534 20.4199C16.2534 18.9461 15.4706 18.125 14.0713 18.125H12.125ZM18.6944 21.0967V22.8105H17.69V18.1284H20.7965V18.8867H18.8194L18.6944 19.0117V20.1362L18.8194 20.2612H20.6017V20.9717H18.8194L18.6944 21.0967ZM8.12939 18.9673L8.25439 18.8423H8.82861C9.43396 18.8423 9.79443 19.1739 9.79443 19.7568C9.79443 20.3346 9.42885 20.668 8.82178 20.668H8.25439L8.12939 20.543V18.9673ZM13.2544 18.8833L13.1294 19.0083V21.9272L13.2544 22.0522H13.8457C14.7379 22.0522 15.2251 21.4806 15.2251 20.4438C15.2251 19.4644 14.7132 18.8833 13.8457 18.8833H13.2544Z" fill="#6C78E6"/>
</svg>
