<svg width="24" height="24" viewBox="0 0 24 24" fill="none" xmlns="http://www.w3.org/2000/svg">
<path fill-rule="evenodd" clip-rule="evenodd" d="M15.374 2.33397L17.1514 5H20.75C22.2688 5 23.5 6.23122 23.5 7.75V18.75C23.5 20.2688 22.2688 21.5 20.75 21.5H2.75C1.23122 21.5 0 20.2688 0 18.75V7.75C0 6.23122 1.23122 5 2.75 5H6.34861L8.12596 2.33397C8.26506 2.12533 8.49924 2 8.75 2H14.75C15.0008 2 15.2349 2.12533 15.374 2.33397ZM14.3486 3.5H9.15139L7.37404 6.16603C7.23494 6.37467 7.00076 6.5 6.75 6.5H2.75C2.05964 6.5 1.5 7.05964 1.5 7.75V18.75C1.5 19.4404 2.05964 20 2.75 20H20.75C21.4404 20 22 19.4404 22 18.75V7.75C22 7.05964 21.4404 6.5 20.75 6.5H16.75C16.4992 6.5 16.2651 6.37467 16.126 6.16603L14.3486 3.5ZM11.75 17.5C14.3734 17.5 16.5 15.3734 16.5 12.75C16.5 10.1266 14.3734 8 11.75 8C9.12665 8 7 10.1266 7 12.75C7 15.3734 9.12665 17.5 11.75 17.5ZM8.5 12.75C8.5 14.5449 9.95507 16 11.75 16C13.5449 16 15 14.5449 15 12.75C15 10.9551 13.5449 9.5 11.75 9.5C9.95507 9.5 8.5 10.9551 8.5 12.75Z" fill="#706D76"/>
</svg>
