<svg width="24" height="31" viewBox="0 0 24 31" fill="none" xmlns="http://www.w3.org/2000/svg">
<circle cx="12" cy="12" r="12" fill="white"/>
<ellipse cx="12" cy="15.5" rx="12" ry="15.5" fill="white"/>
<path fill-rule="evenodd" clip-rule="evenodd" d="M4.83337 14.8333V8.83325C4.83337 7.45254 5.95266 6.33325 7.33337 6.33325H16.6667C18.0474 6.33325 19.1667 7.45254 19.1667 8.83325V14.8333C19.1667 16.214 18.0474 17.3333 16.6667 17.3333H7.33337C5.95266 17.3333 4.83337 16.214 4.83337 14.8333ZM7.33337 16.3333H16.6667C17.4951 16.3333 18.1667 15.6617 18.1667 14.8333V8.83325C18.1667 8.00482 17.4951 7.33325 16.6667 7.33325H7.33337C6.50495 7.33325 5.83337 8.00482 5.83337 8.83325V14.8333C5.83337 15.6617 6.50495 16.3333 7.33337 16.3333ZM16.1667 9.49992H7.83337C7.55723 9.49992 7.33337 9.72378 7.33337 9.99992C7.33337 10.2761 7.55723 10.4999 7.83337 10.4999H16.1667C16.4429 10.4999 16.6667 10.2761 16.6667 9.99992C16.6667 9.72378 16.4429 9.49992 16.1667 9.49992Z" fill="#6C78E6"/>
</svg>
