<svg width="24" height="24" viewBox="0 0 24 24" fill="none" xmlns="http://www.w3.org/2000/svg">
<path fill-rule="evenodd" clip-rule="evenodd" d="M8.5 21.75C8.5 21.3358 8.16421 21 7.75 21H6.75C5.50736 21 4.5 19.9926 4.5 18.75V4.75C4.5 3.50736 5.50736 2.5 6.75 2.5H16.75C17.9926 2.5 19 3.50736 19 4.75V9.75C19 10.1642 19.3358 10.5 19.75 10.5C20.1642 10.5 20.5 10.1642 20.5 9.75V4.75C20.5 2.67893 18.8211 1 16.75 1H6.75C4.67893 1 3 2.67893 3 4.75V18.75C3 20.8211 4.67893 22.5 6.75 22.5H7.75C8.16421 22.5 8.5 22.1642 8.5 21.75ZM10.5 17.25C10.5 19.8734 12.6266 22 15.25 22C16.291 22 17.2538 21.6651 18.0365 21.0972L20.2692 23.3298C20.5621 23.6227 21.0369 23.6227 21.3298 23.3298C21.6227 23.0369 21.6227 22.5621 21.3298 22.2692L19.0972 20.0365C19.6651 19.2538 20 18.291 20 17.25C20 14.6266 17.8734 12.5 15.25 12.5C12.6266 12.5 10.5 14.6266 10.5 17.25ZM15.25 20.5C17.0449 20.5 18.5 19.0449 18.5 17.25C18.5 15.4551 17.0449 14 15.25 14C13.4551 14 12 15.4551 12 17.25C12 19.0449 13.4551 20.5 15.25 20.5Z" fill="#6C78E6"/>
</svg>
