<svg width="148" height="148" viewBox="0 0 148 148" fill="none" xmlns="http://www.w3.org/2000/svg">
<path fill-rule="evenodd" clip-rule="evenodd" d="M109.5 78.5429C108.672 78.5429 108 77.8617 108 77.0214C108 76.1812 108.672 75.5 109.5 75.5C116.404 75.5 122 81.1764 122 88.1786V101.321C122 108.324 116.404 114 109.5 114H39.5C32.5964 114 27 108.324 27 101.321V88.1786C27 81.1764 32.5964 75.5 39.5 75.5C40.3284 75.5 41 76.1812 41 77.0214C41 77.8617 40.3284 78.5429 39.5 78.5429C34.2533 78.5429 30 82.8569 30 88.1786V101.321C30 106.643 34.2533 110.957 39.5 110.957H109.5C114.747 110.957 119 106.643 119 101.321V88.1786C119 82.8569 114.747 78.5429 109.5 78.5429ZM44.5 100C41.7386 100 39.5 97.7614 39.5 95C39.5 92.2386 41.7386 90 44.5 90C47.2614 90 49.5 92.2386 49.5 95C49.5 97.7614 47.2614 100 44.5 100ZM54.5 95C54.5 97.7614 56.7386 100 59.5 100C62.2614 100 64.5 97.7614 64.5 95C64.5 92.2386 62.2614 90 59.5 90C56.7386 90 54.5 92.2386 54.5 95ZM74.5 100C71.7386 100 69.5 97.7614 69.5 95C69.5 92.2386 71.7386 90 74.5 90C77.2614 90 79.5 92.2386 79.5 95C79.5 97.7614 77.2614 100 74.5 100ZM84.5 95C84.5 97.7614 86.7386 100 89.5 100C92.2614 100 94.5 97.7614 94.5 95C94.5 92.2386 92.2614 90 89.5 90C86.7386 90 84.5 92.2386 84.5 95ZM104.5 100C101.739 100 99.5 97.7614 99.5 95C99.5 92.2386 101.739 90 104.5 90C107.261 90 109.5 92.2386 109.5 95C109.5 97.7614 107.261 100 104.5 100ZM46.5 95C46.5 96.1046 45.6046 97 44.5 97C43.3954 97 42.5 96.1046 42.5 95C42.5 93.8954 43.3954 93 44.5 93C45.6046 93 46.5 93.8954 46.5 95ZM59.5 97C60.6046 97 61.5 96.1046 61.5 95C61.5 93.8954 60.6046 93 59.5 93C58.3954 93 57.5 93.8954 57.5 95C57.5 96.1046 58.3954 97 59.5 97ZM76.5 95C76.5 96.1046 75.6046 97 74.5 97C73.3954 97 72.5 96.1046 72.5 95C72.5 93.8954 73.3954 93 74.5 93C75.6046 93 76.5 93.8954 76.5 95ZM89.5 97C90.6046 97 91.5 96.1046 91.5 95C91.5 93.8954 90.6046 93 89.5 93C88.3954 93 87.5 93.8954 87.5 95C87.5 96.1046 88.3954 97 89.5 97ZM106.5 95C106.5 96.1046 105.605 97 104.5 97C103.395 97 102.5 96.1046 102.5 95C102.5 93.8954 103.395 93 104.5 93C105.605 93 106.5 93.8954 106.5 95Z" fill="#6C78E6"/>
<path fill-rule="evenodd" clip-rule="evenodd" d="M87 37V42.5H89C93.6944 42.5 97.5 46.3056 97.5 51V70C97.5 74.6944 93.6944 78.5 89 78.5H60C55.3056 78.5 51.5 74.6944 51.5 70V51C51.5 46.3056 55.3056 42.5 60 42.5H62V37C62 30.3726 67.3726 25 74 25H75C81.6274 25 87 30.3726 87 37ZM60 45.5H62H87H89C92.0376 45.5 94.5 47.9624 94.5 51V70C94.5 73.0376 92.0376 75.5 89 75.5H60C56.9624 75.5 54.5 73.0376 54.5 70V51C54.5 47.9624 56.9624 45.5 60 45.5ZM84 37V42.5H65V37C65 32.0294 69.0294 28 74 28H75C79.9706 28 84 32.0294 84 37ZM74.5 66.5C71.7386 66.5 69.5 64.2614 69.5 61.5C69.5 58.7386 71.7386 56.5 74.5 56.5C77.2614 56.5 79.5 58.7386 79.5 61.5C79.5 64.2614 77.2614 66.5 74.5 66.5ZM76.5 61.5C76.5 62.6046 75.6046 63.5 74.5 63.5C73.3954 63.5 72.5 62.6046 72.5 61.5C72.5 60.3954 73.3954 59.5 74.5 59.5C75.6046 59.5 76.5 60.3954 76.5 61.5Z" fill="#F678BA"/>
</svg>
