<svg width="24" height="24" viewBox="0 0 24 24" fill="none" xmlns="http://www.w3.org/2000/svg">
<path fill-rule="evenodd" clip-rule="evenodd" d="M20.75 3C22.2688 3 23.5 4.23122 23.5 5.75V17.75C23.5 19.2688 22.2688 20.5 20.75 20.5H7.75C7.53373 20.5 7.32798 20.4066 7.18557 20.2439L0.185567 12.2439C-0.0618558 11.9611 -0.0618558 11.5389 0.185567 11.2561L7.18557 3.25612C7.32798 3.09336 7.53373 3 7.75 3H20.75ZM8.09033 4.5L1.74658 11.75L8.09033 19H20.75C21.4404 19 22 18.4404 22 17.75V5.75C22 5.05964 21.4404 4.5 20.75 4.5H8.09033ZM15.8107 11.75L18.2803 14.2197C18.5732 14.5126 18.5732 14.9874 18.2803 15.2803C17.9874 15.5732 17.5126 15.5732 17.2197 15.2803L14.75 12.8107L12.2803 15.2803C11.9874 15.5732 11.5126 15.5732 11.2197 15.2803C10.9268 14.9874 10.9268 14.5126 11.2197 14.2197L13.6893 11.75L11.2197 9.28033C10.9268 8.98744 10.9268 8.51256 11.2197 8.21967C11.5126 7.92678 11.9874 7.92678 12.2803 8.21967L14.75 10.6893L17.2197 8.21967C17.5126 7.92678 17.9874 7.92678 18.2803 8.21967C18.5732 8.51256 18.5732 8.98744 18.2803 9.28033L15.8107 11.75Z" fill="white"/>
</svg>
