<svg width="24" height="24" viewBox="0 0 24 24" fill="none" xmlns="http://www.w3.org/2000/svg">
<path fill-rule="evenodd" clip-rule="evenodd" d="M9.40642 18.3333L9.3475 18.5H2.75C2.33579 18.5 2 18.8358 2 19.25C2 19.6642 2.33579 20 2.75 20H9.3475L9.40642 20.1667C9.7916 21.2565 10.8252 22 12 22C13.1748 22 14.2084 21.2565 14.5936 20.1667L14.6525 20H21.25C21.6642 20 22 19.6642 22 19.25C22 18.8358 21.6642 18.5 21.25 18.5H14.6525L14.5936 18.3333C14.2084 17.2435 13.1748 16.5 12 16.5C10.8252 16.5 9.7916 17.2435 9.40642 18.3333ZM5.3475 11.25L5.40642 11.0833C5.7916 9.99354 6.82515 9.25 8 9.25C9.17485 9.25 10.2084 9.99354 10.5936 11.0833L10.6525 11.25L21.25 11.25C21.6642 11.25 22 11.5858 22 12C22 12.4142 21.6642 12.75 21.25 12.75L10.6525 12.75L10.5936 12.9167C10.2084 14.0065 9.17485 14.75 8 14.75C6.82515 14.75 5.7916 14.0065 5.40642 12.9167L5.3475 12.75H2.75C2.33579 12.75 2 12.4142 2 12C2 11.5858 2.33579 11.25 2.75 11.25H5.3475ZM13.3475 4L13.4064 3.83331C13.7916 2.74354 14.8252 2 16 2C17.1748 2 18.2084 2.74354 18.5936 3.83331L18.6525 4H21.25C21.6642 4 22 4.33579 22 4.75C22 5.16421 21.6642 5.5 21.25 5.5H18.6525L18.5936 5.66669C18.2084 6.75646 17.1748 7.5 16 7.5C14.8252 7.5 13.7916 6.75646 13.4064 5.66669L13.3475 5.5H2.75C2.33579 5.5 2 5.16421 2 4.75C2 4.33579 2.33579 4 2.75 4H13.3475ZM12 20.5C12.6904 20.5 13.25 19.9404 13.25 19.25C13.25 18.5596 12.6904 18 12 18C11.3096 18 10.75 18.5596 10.75 19.25C10.75 19.9404 11.3096 20.5 12 20.5ZM9.25 12C9.25 12.6904 8.69036 13.25 8 13.25C7.30964 13.25 6.75 12.6904 6.75 12C6.75 11.3096 7.30964 10.75 8 10.75C8.69036 10.75 9.25 11.3096 9.25 12ZM16 6C16.6904 6 17.25 5.44036 17.25 4.75C17.25 4.05964 16.6904 3.5 16 3.5C15.3096 3.5 14.75 4.05964 14.75 4.75C14.75 5.44036 15.3096 6 16 6Z" fill="white"/>
</svg>
