<svg width="24" height="24" viewBox="0 0 24 24" fill="none" xmlns="http://www.w3.org/2000/svg">
<path fill-rule="evenodd" clip-rule="evenodd" d="M0.894336 10.2075C0.509967 10.8026 0.246141 11.2717 0.105573 11.5528C-0.0351909 11.8343 -0.0351909 12.1657 0.105573 12.4472C0.246141 12.7283 0.509967 13.1974 0.894336 13.7925C1.5305 14.7776 2.28113 15.762 3.14546 16.6839C5.66131 19.3675 8.6202 21 12 21C15.3798 21 18.3387 19.3675 20.8545 16.6839C21.7189 15.762 22.4695 14.7776 23.1057 13.7925C23.49 13.1974 23.7539 12.7283 23.8944 12.4472C24.0352 12.1657 24.0352 11.8343 23.8944 11.5528C23.7539 11.2717 23.49 10.8026 23.1057 10.2075C22.4695 9.22245 21.7189 8.23802 20.8545 7.31606C18.3387 4.63249 15.3798 3 12 3C8.6202 3 5.66131 4.63249 3.14546 7.31606C2.28113 8.23802 1.5305 9.22245 0.894336 10.2075ZM4.23977 15.658C3.47238 14.8395 2.77249 13.9358 2.15439 12.9787C1.91361 12.6059 1.71006 12.265 1.56489 12C1.71006 11.735 1.91361 11.3941 2.15439 11.0213C2.77249 10.0642 3.47238 9.16052 4.23977 8.34197C6.61675 5.80652 9.21142 4.5 12 4.5C14.7886 4.5 17.3832 5.80652 19.7602 8.34197C20.5276 9.16052 21.2275 10.0642 21.8456 11.0213C22.0864 11.3941 22.2899 11.735 22.4351 12C22.2899 12.265 22.0864 12.6059 21.8456 12.9787C21.2275 13.9358 20.5276 14.8395 19.7602 15.658C17.3832 18.1935 14.7886 19.5 12 19.5C9.21142 19.5 6.61675 18.1935 4.23977 15.658ZM12 16C9.79086 16 8 14.2091 8 12C8 9.79086 9.79086 8 12 8C14.2091 8 16 9.79086 16 12C16 14.2091 14.2091 16 12 16ZM14.5 12C14.5 13.3807 13.3807 14.5 12 14.5C10.6193 14.5 9.5 13.3807 9.5 12C9.5 10.6193 10.6193 9.5 12 9.5C13.3807 9.5 14.5 10.6193 14.5 12Z" fill="#706D76"/>
</svg>
