<svg width="24" height="24" viewBox="0 0 24 24" fill="none" xmlns="http://www.w3.org/2000/svg">
<path fill-rule="evenodd" clip-rule="evenodd" d="M6.5 9.75C8.29493 9.75 9.75 8.29493 9.75 6.5C9.75 4.70507 8.29493 3.25 6.5 3.25C4.70507 3.25 3.25 4.70507 3.25 6.5C3.25 8.29493 4.70507 9.75 6.5 9.75ZM6.5 8.25C5.5335 8.25 4.75 7.4665 4.75 6.5C4.75 5.5335 5.5335 4.75 6.5 4.75C7.4665 4.75 8.25 5.5335 8.25 6.5C8.25 7.4665 7.4665 8.25 6.5 8.25ZM20.75 17.5C20.75 19.2949 19.2949 20.75 17.5 20.75C15.7051 20.75 14.25 19.2949 14.25 17.5C14.25 15.7051 15.7051 14.25 17.5 14.25C19.2949 14.25 20.75 15.7051 20.75 17.5ZM17.5 19.25C16.5335 19.25 15.75 18.4665 15.75 17.5C15.75 16.5335 16.5335 15.75 17.5 15.75C18.4665 15.75 19.25 16.5335 19.25 17.5C19.25 18.4665 18.4665 19.25 17.5 19.25ZM4.46967 18.4697L18.4697 4.46967C18.7626 4.17678 19.2374 4.17678 19.5303 4.46967C19.8232 4.76256 19.8232 5.23744 19.5303 5.53033L5.53033 19.5303C5.23744 19.8232 4.76256 19.8232 4.46967 19.5303C4.17678 19.2374 4.17678 18.7626 4.46967 18.4697Z" fill="#6C78E6"/>
</svg>
