<svg width="148" height="148" viewBox="0 0 148 148" fill="none" xmlns="http://www.w3.org/2000/svg">
<path fill-rule="evenodd" clip-rule="evenodd" d="M111 135.554C114.369 133.613 117.585 131.392 120.617 128.906C121.255 128.382 122.201 128.472 122.728 129.106C123.256 129.74 123.166 130.678 122.527 131.202C109.407 141.962 92.9647 147.962 75.5955 148L75.5719 148L75.5009 148L75.4299 148L75.4063 148C58.0372 147.962 41.5951 141.962 28.4747 131.202C27.836 130.678 27.7459 129.74 28.2735 129.106C28.8011 128.472 29.7465 128.382 30.3853 128.906C33.4163 131.392 36.6319 133.613 39.9999 135.552V40.7039C39.9999 34.1243 45.3725 28.7905 51.9999 28.7905H98.9999C105.627 28.7905 111 34.1243 111 40.7039V135.554ZM108 137.186V40.7039C108 35.7692 103.971 31.7689 99 31.7689H52C47.0294 31.7689 43 35.7692 43 40.7039V137.185C43.9885 137.693 44.9888 138.177 46 138.638V48.6461C46 45.3563 48.6863 42.6894 52 42.6894H99C102.314 42.6894 105 45.3563 105 48.6461V138.638C106.011 138.178 107.011 137.694 108 137.186ZM102 48.6461V139.922C93.7002 143.247 84.7376 145.013 75.501 145.022C66.2636 145.013 57.3004 143.247 49 139.921V48.6461C49 47.0012 50.3431 45.6678 52 45.6678H99C100.657 45.6678 102 47.0012 102 48.6461ZM74 36.7328H82C82.8284 36.7328 83.5 37.3995 83.5 38.2219C83.5 39.0444 82.8284 39.7111 82 39.7111H74C73.1716 39.7111 72.5 39.0444 72.5 38.2219C72.5 37.3995 73.1716 36.7328 74 36.7328ZM70.5 38.2219C70.5 37.3995 69.8284 36.7328 69 36.7328C68.1716 36.7328 67.5 37.3995 67.5 38.2219C67.5 39.0444 68.1716 39.7111 69 39.7111C69.8284 39.7111 70.5 39.0444 70.5 38.2219Z" fill="#6C78E6"/>
<path fill-rule="evenodd" clip-rule="evenodd" d="M66.4393 110.755L74.4393 118.698C75.0251 119.279 75.9749 119.279 76.5607 118.698C77.1464 118.116 77.1464 117.173 76.5607 116.592L71.1213 111.192H111C117.075 111.192 122 106.302 122 100.271C122 94.2397 117.075 89.3503 111 89.3503V92.3287C115.418 92.3287 119 95.8845 119 100.271C119 104.657 115.418 108.213 111 108.213H71.1213L76.5607 102.813C77.1464 102.232 77.1464 101.289 76.5607 100.707C75.9749 100.126 75.0251 100.126 74.4393 100.707L66.4393 108.649C65.8536 109.231 65.8536 110.174 66.4393 110.755Z" fill="#F678BA"/>
<path fill-rule="evenodd" clip-rule="evenodd" d="M40 69.4945H79.8787L74.4393 64.0945C73.8536 63.5129 73.8536 62.57 74.4393 61.9885C75.0251 61.4069 75.9749 61.4069 76.5607 61.9885L84.5607 69.9307C85.1464 70.5123 85.1464 71.4551 84.5607 72.0367L76.5607 79.9789C75.9749 80.5605 75.0251 80.5605 74.4393 79.9789C73.8536 79.3974 73.8536 78.4545 74.4393 77.8729L79.8787 72.4729H40C35.5817 72.4729 32 76.0287 32 80.4151C32 84.8015 35.5817 88.3574 40 88.3574V91.3357C33.9249 91.3357 29 86.4464 29 80.4151C29 74.3838 33.9249 69.4945 40 69.4945Z" fill="#F678BA"/>
</svg>
