<svg width="24" height="24" viewBox="0 0 24 24" fill="none" xmlns="http://www.w3.org/2000/svg">
<circle cx="12" cy="12" r="11" fill="#403A47" stroke="#352F3D" stroke-width="2"/>
<path fill-rule="evenodd" clip-rule="evenodd" d="M13.2803 11.5303L15.7803 9.03033C16.0732 8.73744 16.0732 8.26256 15.7803 7.96967L13.2803 5.46967C12.9874 5.17678 12.5126 5.17678 12.2197 5.46967C11.9268 5.76256 11.9268 6.23744 12.2197 6.53033L13.4393 7.75H12C9.37665 7.75 7.25 9.87665 7.25 12.5C7.25 15.1234 9.37665 17.25 12 17.25C14.6234 17.25 16.75 15.1234 16.75 12.5C16.75 12.0858 16.4142 11.75 16 11.75C15.5858 11.75 15.25 12.0858 15.25 12.5C15.25 14.2949 13.7949 15.75 12 15.75C10.2051 15.75 8.75 14.2949 8.75 12.5C8.75 10.7051 10.2051 9.25 12 9.25H12.3194H13.4393L12.2197 10.4697C11.9268 10.7626 11.9268 11.2374 12.2197 11.5303C12.5126 11.8232 12.9874 11.8232 13.2803 11.5303Z" fill="white"/>
</svg>
