<svg width="24" height="24" viewBox="0 0 24 24" fill="none" xmlns="http://www.w3.org/2000/svg">
<path fill-rule="evenodd" clip-rule="evenodd" d="M6.10591 4.40092C5.65062 4.62434 5.09885 4.43956 4.87348 3.98821C4.64812 3.53686 4.8345 2.98985 5.28979 2.76643C10.0893 0.411189 14.9335 0.411189 19.7331 2.76643C20.1883 2.98985 20.3747 3.53686 20.1494 3.98821C19.924 4.43956 19.3722 4.62434 18.9169 4.40092C14.6317 2.29806 10.3911 2.29806 6.10591 4.40092ZM22.8449 8.68621C23.1271 9.10495 23.0135 9.67123 22.5911 9.95105C22.1688 10.2309 21.5975 10.1182 21.3153 9.69951C19.6474 7.22507 16.2789 5.61009 12.5114 5.61009C8.72771 5.61009 5.34736 7.23907 3.68737 9.72965C3.40731 10.1498 2.83669 10.2654 2.41285 9.98775C1.98901 9.71011 1.87244 9.14442 2.1525 8.72424C4.1698 5.69757 8.1359 3.78632 12.5114 3.78632C16.8677 3.78632 20.819 5.68073 22.8449 8.68621ZM12.5114 14.5415C12.0034 14.5415 11.5916 14.9498 11.5916 15.4534C11.5916 18.8937 14.5577 21.6593 18.1894 21.6593C18.637 21.6593 19.0795 21.6172 19.5118 21.5345C20.0106 21.439 20.3369 20.9607 20.2406 20.4662C20.1442 19.9717 19.6618 19.6483 19.163 19.7438C18.8455 19.8046 18.5199 19.8355 18.1894 19.8355C15.5494 19.8355 13.4313 17.8606 13.4313 15.4534C13.4313 14.9498 13.0194 14.5415 12.5114 14.5415ZM5.434 19.4533C5.5961 19.9306 5.33722 20.4478 4.85577 20.6085C4.37432 20.7692 3.85261 20.5126 3.69051 20.0353C2.06322 15.244 2.90401 11.3243 6.23118 8.46707C11.661 3.80409 21.3492 7.05087 21.9425 14.6272C22.2605 17.4358 20.67 19.1611 18.359 19.0531C16.2706 18.9555 14.4306 17.3718 14.4306 15.2862C14.4306 14.3102 13.6413 13.6904 12.5114 13.6904C11.3816 13.6904 10.5923 14.3102 10.5923 15.2862C10.5923 18.7052 12.4393 21.2949 16.1392 22.2027C16.6323 22.3237 16.9332 22.8181 16.8111 23.307C16.6891 23.7959 16.1904 24.0941 15.6972 23.9731C11.1382 22.8545 8.7526 19.5096 8.7526 15.2862C8.7526 13.1973 10.4474 11.8666 12.5114 11.8666C14.5755 11.8666 16.2702 13.1973 16.2702 15.2862C16.2702 16.3148 17.2713 17.1764 18.4456 17.2313C19.6146 17.2859 20.3072 16.5346 20.1113 14.7996C19.6376 8.75568 11.7737 6.12025 7.43571 9.84556C4.70637 12.1894 4.03303 15.3284 5.434 19.4533ZM18.3807 16.1782C18.8776 16.0734 19.1948 15.5891 19.0891 15.0965C18.247 11.1708 16.005 9.08032 12.5114 9.08032C8.42582 9.08032 5.91361 12.3678 5.91361 14.7289C5.91361 14.7229 5.88115 14.9524 5.86592 15.0601C5.86098 15.095 5.85785 15.1171 5.85824 15.1142C5.50583 17.7946 6.35289 20.5558 9.59309 23.7359C9.95411 24.0903 10.5365 24.0874 10.8939 23.7295C11.2513 23.3716 11.2484 22.7942 10.8874 22.4399C8.07349 19.6782 7.40144 17.4874 7.68247 15.3499C7.69256 15.2731 7.7042 15.1926 7.72476 15.0512C7.74437 14.9116 7.75328 14.8271 7.75328 14.7289C7.75328 13.2821 9.57053 10.9041 12.5114 10.9041C15.0744 10.9041 16.6177 12.343 17.2897 15.4759C17.3954 15.9685 17.8838 16.2829 18.3807 16.1782Z" fill="black"/>
<mask id="mask0_0_13611" style="mask-type:luminance" maskUnits="userSpaceOnUse" x="2" y="1" width="21" height="23">
<path fill-rule="evenodd" clip-rule="evenodd" d="M6.10591 4.40092C5.65062 4.62434 5.09885 4.43956 4.87348 3.98821C4.64812 3.53686 4.8345 2.98985 5.28979 2.76643C10.0893 0.411189 14.9335 0.411189 19.7331 2.76643C20.1883 2.98985 20.3747 3.53686 20.1494 3.98821C19.924 4.43956 19.3722 4.62434 18.9169 4.40092C14.6317 2.29806 10.3911 2.29806 6.10591 4.40092ZM22.8449 8.68621C23.1271 9.10495 23.0135 9.67123 22.5911 9.95105C22.1688 10.2309 21.5975 10.1182 21.3153 9.69951C19.6474 7.22507 16.2789 5.61009 12.5114 5.61009C8.72771 5.61009 5.34736 7.23907 3.68737 9.72965C3.40731 10.1498 2.83669 10.2654 2.41285 9.98775C1.98901 9.71011 1.87244 9.14442 2.1525 8.72424C4.1698 5.69757 8.1359 3.78632 12.5114 3.78632C16.8677 3.78632 20.819 5.68073 22.8449 8.68621ZM12.5114 14.5415C12.0034 14.5415 11.5916 14.9498 11.5916 15.4534C11.5916 18.8937 14.5577 21.6593 18.1894 21.6593C18.637 21.6593 19.0795 21.6172 19.5118 21.5345C20.0106 21.439 20.3369 20.9607 20.2406 20.4662C20.1442 19.9717 19.6618 19.6483 19.163 19.7438C18.8455 19.8046 18.5199 19.8355 18.1894 19.8355C15.5494 19.8355 13.4313 17.8606 13.4313 15.4534C13.4313 14.9498 13.0194 14.5415 12.5114 14.5415ZM5.434 19.4533C5.5961 19.9306 5.33722 20.4478 4.85577 20.6085C4.37432 20.7692 3.85261 20.5126 3.69051 20.0353C2.06322 15.244 2.90401 11.3243 6.23118 8.46707C11.661 3.80409 21.3492 7.05087 21.9425 14.6272C22.2605 17.4358 20.67 19.1611 18.359 19.0531C16.2706 18.9555 14.4306 17.3718 14.4306 15.2862C14.4306 14.3102 13.6413 13.6904 12.5114 13.6904C11.3816 13.6904 10.5923 14.3102 10.5923 15.2862C10.5923 18.7052 12.4393 21.2949 16.1392 22.2027C16.6323 22.3237 16.9332 22.8181 16.8111 23.307C16.6891 23.7959 16.1904 24.0941 15.6972 23.9731C11.1382 22.8545 8.7526 19.5096 8.7526 15.2862C8.7526 13.1973 10.4474 11.8666 12.5114 11.8666C14.5755 11.8666 16.2702 13.1973 16.2702 15.2862C16.2702 16.3148 17.2713 17.1764 18.4456 17.2313C19.6146 17.2859 20.3072 16.5346 20.1113 14.7996C19.6376 8.75568 11.7737 6.12025 7.43571 9.84556C4.70637 12.1894 4.03303 15.3284 5.434 19.4533ZM18.3807 16.1782C18.8776 16.0734 19.1948 15.5891 19.0891 15.0965C18.247 11.1708 16.005 9.08032 12.5114 9.08032C8.42582 9.08032 5.91361 12.3678 5.91361 14.7289C5.91361 14.7229 5.88115 14.9524 5.86592 15.0601C5.86098 15.095 5.85785 15.1171 5.85824 15.1142C5.50583 17.7946 6.35289 20.5558 9.59309 23.7359C9.95411 24.0903 10.5365 24.0874 10.8939 23.7295C11.2513 23.3716 11.2484 22.7942 10.8874 22.4399C8.07349 19.6782 7.40144 17.4874 7.68247 15.3499C7.69256 15.2731 7.7042 15.1926 7.72476 15.0512C7.74437 14.9116 7.75328 14.8271 7.75328 14.7289C7.75328 13.2821 9.57053 10.9041 12.5114 10.9041C15.0744 10.9041 16.6177 12.343 17.2897 15.4759C17.3954 15.9685 17.8838 16.2829 18.3807 16.1782Z" fill="white"/>
</mask>
<g mask="url(#mask0_0_13611)">
<rect width="24" height="24" fill="white"/>
</g>
</svg>
