<svg width="24" height="24" viewBox="0 0 24 24" fill="none" xmlns="http://www.w3.org/2000/svg">
<path fill-rule="evenodd" clip-rule="evenodd" d="M15.624 2.58397L17.4014 5.25H21C22.5188 5.25 23.75 6.48122 23.75 8V19C23.75 20.5188 22.5188 21.75 21 21.75H3C1.48122 21.75 0.25 20.5188 0.25 19V8C0.25 6.48122 1.48122 5.25 3 5.25H6.59861L8.37596 2.58397C8.51506 2.37533 8.74924 2.25 9 2.25H15C15.2508 2.25 15.4849 2.37533 15.624 2.58397ZM14.5986 3.75H9.40139L7.62404 6.41603C7.48494 6.62467 7.25076 6.75 7 6.75H3C2.30964 6.75 1.75 7.30964 1.75 8V19C1.75 19.6904 2.30964 20.25 3 20.25H21C21.6904 20.25 22.25 19.6904 22.25 19V8C22.25 7.30964 21.6904 6.75 21 6.75H17C16.7492 6.75 16.5151 6.62467 16.376 6.41603L14.5986 3.75ZM12 17.75C14.6234 17.75 16.75 15.6234 16.75 13C16.75 10.3766 14.6234 8.25 12 8.25C9.37665 8.25 7.25 10.3766 7.25 13C7.25 15.6234 9.37665 17.75 12 17.75ZM8.75 13C8.75 14.7949 10.2051 16.25 12 16.25C13.7949 16.25 15.25 14.7949 15.25 13C15.25 11.2051 13.7949 9.75 12 9.75C10.2051 9.75 8.75 11.2051 8.75 13Z" fill="#F678BA"/>
</svg>
