<svg width="148" height="148" viewBox="0 0 148 148" fill="none" xmlns="http://www.w3.org/2000/svg">
<path fill-rule="evenodd" clip-rule="evenodd" d="M43.1588 118.413C39.644 121.928 33.9456 121.928 30.4308 118.413C26.9161 114.898 26.9161 109.2 30.4308 105.685L56.2038 79.9121C53.8661 72.8202 55.6506 64.9089 61.0583 59.5013C66.7032 53.8563 75.0765 52.1595 82.3979 54.9785L84.551 55.8075L75.2004 65.1581C75.0051 65.3534 75.0051 65.67 75.2004 65.8652L82.9786 73.6434C83.1738 73.8387 83.4904 73.8387 83.6857 73.6434L93.0363 64.2928L93.8654 66.4459C96.6843 73.7673 94.9875 82.1406 89.3425 87.7856C83.9349 93.1932 76.0236 94.9777 68.9317 92.6401L43.1588 118.413ZM63.1796 61.6226C58.3808 66.4214 56.9385 73.5386 59.3351 79.763L59.6855 80.6731L32.5522 107.806C30.209 110.15 30.209 113.949 32.5522 116.292C34.8953 118.635 38.6943 118.635 41.0374 116.292L68.1708 89.1583L69.0808 89.5087C75.3052 91.9053 82.4224 90.463 87.2212 85.6642C91.442 81.4435 93.0661 75.4291 91.7655 69.8063L85.807 75.7647C84.4402 77.1316 82.2241 77.1316 80.8572 75.7647L73.0791 67.9866C71.7122 66.6197 71.7122 64.4037 73.0791 63.0368L79.0375 57.0783C73.4147 55.7777 67.4003 57.4018 63.1796 61.6226ZM37.5632 113.563C36.9807 114.146 36.0364 114.146 35.454 113.563L35.4369 113.546C34.8544 112.964 34.8544 112.019 35.4369 111.437C36.0193 110.854 36.9636 110.854 37.5461 111.437L37.5632 111.454C38.1456 112.036 38.1456 112.981 37.5632 113.563Z" fill="#F678BA"/>
<path fill-rule="evenodd" clip-rule="evenodd" d="M51.2249 79.9411C50.7456 78.0166 50.5 76.0257 50.5 74C50.5 60.469 61.469 49.5 75 49.5C88.531 49.5 99.5 60.469 99.5 74C99.5 87.531 88.531 98.5 75 98.5C72.8863 98.5 70.8108 98.2326 68.8097 97.7117L66.3949 100.126C69.1455 101.032 72.0411 101.5 75 101.5C90.1878 101.5 102.5 89.1878 102.5 74C102.5 58.8122 90.1878 46.5 75 46.5C59.8122 46.5 47.5 58.8122 47.5 74C47.5 76.8735 47.9414 79.6879 48.797 82.369L51.2249 79.9411ZM41.1044 90.0616C40.1196 87.9868 39.327 85.8227 38.7386 83.5928L29.9678 82.2435C28.2604 81.9808 27 80.5117 27 78.7842V69.2158C27 67.4883 28.2604 66.0192 29.9678 65.7565L38.7386 64.4072C39.5667 61.2687 40.799 58.2624 42.3995 55.4548L37.182 48.34C36.1604 46.9469 36.308 45.0169 37.5295 43.7953L44.2953 37.0295C45.5169 35.808 47.4469 35.6604 48.84 36.682L55.7967 41.7836C58.6591 40.0738 61.7398 38.7517 64.9657 37.858L66.2565 29.4678C66.5192 27.7604 67.9883 26.5 69.7158 26.5H79.2842C81.0117 26.5 82.4808 27.7604 82.7435 29.4678L83.9923 37.5854C87.3859 38.4208 90.6317 39.7263 93.6473 41.4579L100.16 36.682C101.553 35.6604 103.483 35.808 104.705 37.0295L111.47 43.7953C112.692 45.0169 112.84 46.9469 111.818 48.34L107.156 54.6967C109.021 57.7966 110.43 61.1538 111.331 64.6749L118.995 65.7698C120.719 66.0161 122 67.4928 122 69.2346V78.7654C122 80.5072 120.719 81.9839 118.995 82.2302L111.331 83.3251C110.421 86.8824 108.992 90.2724 107.099 93.3986L111.782 99.643C112.827 101.036 112.689 102.986 111.457 104.218L104.718 110.957C103.486 112.189 101.536 112.327 100.143 111.282L93.7465 106.485C90.6699 108.264 87.3519 109.599 83.8807 110.442L82.7302 118.495C82.4839 120.219 81.0072 121.5 79.2654 121.5H69.7346C67.9928 121.5 66.5161 120.219 66.2698 118.495L65.081 110.174C62.8901 109.574 60.7645 108.777 58.727 107.794L60.986 105.535C62.8498 106.365 64.7879 107.028 66.7807 107.515L67.7661 107.756L69.2396 118.071C69.2748 118.317 69.4858 118.5 69.7346 118.5H79.2654C79.5142 118.5 79.7252 118.317 79.7604 118.071L81.2048 107.96L82.2289 107.742C86.0732 106.922 89.7278 105.452 93.0556 103.404L93.9251 102.869L101.943 108.882C102.142 109.032 102.421 109.012 102.597 108.836L109.336 102.097C109.512 101.921 109.532 101.642 109.382 101.443L103.456 93.5408L104.021 92.6634C106.19 89.298 107.76 85.5784 108.649 81.6528L108.877 80.6452L118.571 79.2604C118.817 79.2252 119 79.0142 119 78.7654V69.2346C119 68.9858 118.817 68.7748 118.571 68.7396L108.877 67.3548L108.649 66.3472C107.768 62.46 106.221 58.7745 104.084 55.4348L103.53 54.5686L109.399 46.5659C109.545 46.3669 109.524 46.0912 109.349 45.9167L102.583 39.1508C102.409 38.9763 102.133 38.9552 101.934 39.1012L93.8118 45.0575L92.9538 44.5336C89.6872 42.5388 86.1085 41.0992 82.3464 40.2835L81.3385 40.065L79.7783 29.924C79.7408 29.6801 79.5309 29.5 79.2842 29.5H69.7158C69.4691 29.5 69.2592 29.6801 69.2217 29.924L67.6294 40.2739L66.66 40.5145C63.0607 41.4079 59.6445 42.8767 56.528 44.8563L55.6631 45.4058L47.0659 39.1012C46.8669 38.9552 46.5912 38.9763 46.4167 39.1508L39.6508 45.9167C39.4763 46.0912 39.4552 46.3669 39.6012 46.5659L45.995 55.2847L45.4756 56.1415C43.6122 59.2152 42.2387 62.5641 41.4128 66.081L41.1813 67.0667L30.424 68.7217C30.1801 68.7592 30 68.9691 30 69.2158V78.7842C30 79.0309 30.1801 79.2408 30.424 79.2783L41.1813 80.9333L41.4128 81.919C41.8873 83.9397 42.5428 85.9058 43.369 87.797L41.1044 90.0616Z" fill="#6C78E6"/>
</svg>
