<svg width="24" height="24" viewBox="0 0 24 24" fill="none" xmlns="http://www.w3.org/2000/svg">
<path fill-rule="evenodd" clip-rule="evenodd" d="M5.57743 22.2175L11.988 18.8473L18.3985 22.2175C18.9487 22.5068 19.5918 22.0396 19.4867 21.4269L18.2624 14.2887L23.4486 9.23337C23.8938 8.79947 23.6481 8.04349 23.033 7.9541L15.8658 6.91265L12.6605 0.418076C12.3854 -0.139359 11.5905 -0.139359 11.3154 0.418076L8.11014 6.91265L0.942959 7.9541C0.327793 8.04349 0.0821608 8.79947 0.527299 9.23337L5.71352 14.2887L4.48922 21.4269C4.38414 22.0396 5.02721 22.5068 5.57743 22.2175ZM12.337 17.3362C12.1185 17.2213 11.8574 17.2213 11.639 17.3362L6.22453 20.1827L7.25859 14.1536C7.30032 13.9103 7.21966 13.6621 7.04289 13.4898L2.66253 9.21998L8.71604 8.34036C8.96032 8.30486 9.1715 8.15143 9.28074 7.93008L11.988 2.44466L14.6952 7.93008C14.8044 8.15143 15.0156 8.30486 15.2599 8.34036L21.3134 9.21998L16.933 13.4898C16.7563 13.6621 16.6756 13.9103 16.7173 14.1536L17.7514 20.1827L12.337 17.3362Z" fill="#6C78E6"/>
</svg>
