<svg width="24" height="24" viewBox="0 0 24 24" fill="none" xmlns="http://www.w3.org/2000/svg">
<path d="M6.01603 4.50195C5.62484 4.50156 5.23741 4.57832 4.87593 4.72784C4.51444 4.87736 4.18599 5.0967 3.90938 5.37331C3.63277 5.64992 3.41343 5.97837 3.26391 6.33986C3.11439 6.70134 3.03763 7.08877 3.03803 7.47995C3.03803 9.71295 6.01603 13.01 6.01603 13.01C6.01603 13.01 8.99403 9.71295 8.99403 7.47995C8.99442 7.08877 8.91766 6.70134 8.76814 6.33986C8.61862 5.97837 8.39928 5.64992 8.12267 5.37331C7.84606 5.0967 7.51761 4.87736 7.15612 4.72784C6.79464 4.57832 6.40721 4.50156 6.01603 4.50195ZM6.01603 8.54295C5.80578 8.54295 5.60026 8.48061 5.42546 8.36381C5.25065 8.247 5.1144 8.08099 5.03394 7.88675C4.95349 7.69251 4.93244 7.47878 4.97345 7.27257C5.01447 7.06637 5.11571 6.87696 5.26437 6.7283C5.41304 6.57964 5.60244 6.4784 5.80865 6.43738C6.01485 6.39636 6.22858 6.41742 6.42282 6.49787C6.61706 6.57833 6.78307 6.71457 6.89988 6.88938C7.01668 7.06419 7.07903 7.26971 7.07903 7.47995C7.07876 7.7618 6.96668 8.03202 6.76739 8.23132C6.56809 8.43061 6.29787 8.54269 6.01603 8.54295Z" fill="#C2C1C6"/>
<path d="M21.024 11.296V6.99605C21.017 6.5445 20.9484 6.09603 20.82 5.66305C20.4919 4.51837 19.7657 3.52853 18.7723 2.87191C17.7789 2.21529 16.5837 1.93508 15.402 2.08176C14.2203 2.22845 13.1298 2.7924 12.3271 3.67197C11.5244 4.55154 11.0623 5.68889 11.024 6.87905V7.12705L11.014 7.99705V17.949H11.01V17.99C11.01 18.5205 10.7993 19.0292 10.4242 19.4043C10.0491 19.7793 9.54044 19.99 9.01001 19.99C8.47958 19.99 7.97087 19.7793 7.5958 19.4043C7.22072 19.0292 7.01001 18.5205 7.01001 17.99C7.01001 17.978 7.01301 17.966 7.01401 17.953H7.01001V16.01H5.01001V18.01H5.01201C5.01267 19.0704 5.43453 20.087 6.18476 20.8363C6.935 21.5856 7.95217 22.0062 9.01251 22.0055C10.0728 22.0049 11.0895 21.583 11.8388 20.8328C12.5881 20.0826 13.0087 19.0654 13.008 18.005H13.01V17.023H13.015V8.99705L13.025 7.12705V6.88005C13.0535 6.09281 13.3904 5.34834 13.963 4.80733C14.5356 4.26631 15.298 3.97213 16.0856 3.98827C16.8731 4.00442 17.6228 4.3296 18.1727 4.89363C18.7227 5.45765 19.0288 6.2153 19.025 7.00305V11.278C18.6421 11.4947 18.3413 11.8317 18.1694 12.2367C17.9974 12.6417 17.9639 13.0921 18.074 13.5181C18.1842 13.9441 18.4317 14.3219 18.7784 14.5928C19.1251 14.8638 19.5515 15.0128 19.9914 15.0168C20.4314 15.0207 20.8604 14.8794 21.2119 14.6147C21.5634 14.3501 21.8177 13.9768 21.9355 13.5529C22.0533 13.1289 22.0279 12.678 21.8633 12.27C21.6986 11.8619 21.404 11.5196 21.025 11.296H21.024Z" fill="#C2C1C6"/>
</svg>
